<?xml version="1.0" standalone="no"?>
<!DOCTYPE svg PUBLIC "-//W3C//DTD SVG 20010904//EN"
 "http://www.w3.org/TR/2001/REC-SVG-20010904/DTD/svg10.dtd">
<svg version="1.0" xmlns="http://www.w3.org/2000/svg"
 width="225.000000pt" height="225.000000pt" viewBox="0 0 225.000000 225.000000"
 preserveAspectRatio="xMidYMid meet">

<g transform="translate(0.000000,225.000000) scale(0.100000,-0.100000)"
fill="#000000" stroke="none">
<path d="M0 1125 l0 -1125 1125 0 1125 0 0 1125 0 1125 -1125 0 -1125 0 0
-1125z m1420 535 c0 -5 -7 -10 -15 -10 -8 0 -15 5 -15 10 0 6 7 10 15 10 8 0
15 -4 15 -10z m-413 -36 c-3 -3 -12 -4 -19 -1 -8 3 -5 6 6 6 11 1 17 -2 13 -5z
m137 -144 c14 -194 25 -203 107 -79 29 45 55 77 56 72 2 -6 -12 -47 -32 -92
-36 -81 -39 -111 -12 -111 7 0 51 18 96 40 46 22 85 39 87 37 2 -2 -32 -31
-75 -65 -61 -47 -78 -66 -74 -81 5 -21 29 -26 163 -37 153 -12 133 -24 -68
-40 -75 -6 -85 -10 -95 -31 -5 -12 -8 -24 -6 -26 2 -2 36 -27 74 -57 39 -30
72 -55 74 -57 2 -2 2 -5 -1 -8 -2 -3 -42 15 -89 39 -83 42 -109 47 -109 21 0
-7 16 -50 35 -96 20 -45 34 -86 33 -90 -2 -5 -28 30 -58 76 -30 46 -61 84 -68
85 -21 0 -30 -40 -37 -168 -4 -67 -12 -125 -16 -128 -5 -3 -9 10 -10 28 -1 18
-6 85 -13 148 -14 148 -23 150 -100 34 -32 -47 -60 -84 -62 -81 -3 2 13 46 36
97 54 126 47 134 -72 74 -50 -25 -92 -43 -95 -41 -2 3 30 31 71 63 55 42 76
65 76 81 0 27 -3 28 -163 44 -65 6 -116 14 -113 17 3 2 60 11 128 18 67 7 128
16 135 18 28 11 10 43 -53 91 -96 74 -98 82 -6 36 89 -45 104 -48 121 -27 8
10 2 33 -30 100 -22 48 -39 90 -36 92 3 3 31 -31 62 -76 38 -54 63 -80 74 -78
17 3 19 18 36 202 9 100 20 82 29 -44z m-434 30 c0 -5 -4 -10 -10 -10 -5 0
-10 5 -10 10 0 6 5 10 10 10 6 0 10 -4 10 -10z m-119 -43 c-1 -12 -15 -9 -19
4 -3 6 1 10 8 8 6 -3 11 -8 11 -12z m29 -377 c0 -5 -4 -10 -10 -10 -5 0 -10 5
-10 10 0 6 5 10 10 10 6 0 10 -4 10 -10z m1104 -121 c-3 -5 -10 -7 -15 -3 -5
3 -7 10 -3 15 3 5 10 7 15 3 5 -3 7 -10 3 -15z m-1044 -39 c0 -5 -4 -10 -10
-10 -5 0 -10 5 -10 10 0 6 5 10 10 10 6 0 10 -4 10 -10z m84 -91 c-3 -5 -10
-7 -15 -3 -5 3 -7 10 -3 15 3 5 10 7 15 3 5 -3 7 -10 3 -15z m910 -80 c-3 -5
-10 -7 -15 -3 -5 3 -7 10 -3 15 3 5 10 7 15 3 5 -3 7 -10 3 -15z m-659 -129
c3 -5 1 -10 -4 -10 -6 0 -11 5 -11 10 0 6 2 10 4 10 3 0 8 -4 11 -10z"/>
<path d="M1071 1272 c-101 -51 -106 -183 -9 -242 39 -24 76 -25 123 -6 99 42
100 203 2 249 -45 22 -73 21 -116 -1z m132 -51 c11 -10 21 -39 24 -64 5 -41 2
-49 -25 -77 -64 -64 -171 -23 -175 67 -3 93 110 141 176 74z"/>
</g>
</svg>
