<svg xmlns="http://www.w3.org/2000/svg" width="17.87" height="18.048" viewBox="0 0 17.87 18.048">
  <g id="Group_11356" data-name="Group 11356" transform="translate(-357.665 110.941)">
    <path id="Path_8313" data-name="Path 8313" d="M365.191-92.893a.65.65,0,0,1-.452-.706c0-2.631,0-5.261.007-7.892a1.47,1.47,0,0,0-.42-1.061q-3.2-3.451-6.379-6.914a.83.83,0,0,1,.037-1.28,1.539,1.539,0,0,1,.462-.187.5.5,0,0,1,.158,0h16a.837.837,0,0,1,.909.64.853.853,0,0,1-.242.822c-.577.618-1.148,1.242-1.721,1.864q-2.358,2.558-4.718,5.115a1.331,1.331,0,0,0-.37.955c.007,1.58,0,3.159.007,4.739a1.377,1.377,0,0,1-.347.965c-.794.9-1.579,1.817-2.374,2.721a1.719,1.719,0,0,1-.305.224Z" fill="#ee4e5e"/>
  </g>
</svg>
