<svg id="language" xmlns="http://www.w3.org/2000/svg" width="20" height="20" viewBox="0 0 20 20">
  <path id="Path_25908" data-name="Path 25908" d="M18.242,3.555H9.789L9.538,1.54A1.761,1.761,0,0,0,7.794,0H1.758A1.76,1.76,0,0,0,0,1.758v12.93a1.76,1.76,0,0,0,1.758,1.758H6.7l.248,2.015A1.762,1.762,0,0,0,8.691,20h9.551A1.76,1.76,0,0,0,20,18.242V5.313A1.76,1.76,0,0,0,18.242,3.555ZM1.758,15.273a.587.587,0,0,1-.586-.586V1.758a.587.587,0,0,1,.586-.586H7.794a.587.587,0,0,1,.581.513l1.694,13.589Zm6.317,2.764-.2-1.592H9.451Zm10.753.205a.587.587,0,0,1-.586.586H8.94l2.231-2.58a.585.585,0,0,0,.142-.47L9.935,4.727h8.307a.587.587,0,0,1,.586.586Z" fill="#fff"/>
  <path id="Path_25906" data-name="Path 25906" d="M80.674,112.33,79.5,106.471a.586.586,0,0,0-.575-.471H77.756a.586.586,0,0,0-.575.471l-1.172,5.859a.586.586,0,1,0,1.149.23l.375-1.873H79.15l.375,1.873a.586.586,0,0,0,1.149-.23Zm-2.907-2.815.469-2.344h.211l.469,2.344Z" transform="translate(-73.029 -101.859)" fill="#fff"/>
  <path id="Path_25909" data-name="Path 25909" d="M1.024-3.885q.066.207.154.45a4.994,4.994,0,0,0,.209.492,4.456,4.456,0,0,0,.272.481,2.163,2.163,0,0,0,.347.413,1.629,1.629,0,0,0,.433.288,1.262,1.262,0,0,0,.527.108,1.243,1.243,0,0,0,.483-.083.865.865,0,0,0,.321-.224.856.856,0,0,0,.178-.33A1.41,1.41,0,0,0,4-2.685a.846.846,0,0,0-.327-.708,1.516,1.516,0,0,0-.947-.255q-.075,0-.149,0T2.43-3.63V-4.3a.518.518,0,0,0,.064,0h.033a1.788,1.788,0,0,0,.547-.077,1.227,1.227,0,0,0,.4-.209.881.881,0,0,0,.246-.308.85.85,0,0,0,.083-.369.751.751,0,0,0-.062-.312A.66.66,0,0,0,3.577-5.8a.7.7,0,0,0-.25-.138,1.039,1.039,0,0,0-.316-.046,1.647,1.647,0,0,0-.229.015,1.946,1.946,0,0,0-.233.048,2.7,2.7,0,0,0-.261.086q-.138.053-.314.132l-.25-.6a3.752,3.752,0,0,1,.659-.253,2.46,2.46,0,0,1,.646-.086,1.662,1.662,0,0,1,.587.1,1.425,1.425,0,0,1,.466.279,1.263,1.263,0,0,1,.305.424A1.289,1.289,0,0,1,4.5-5.3a1.447,1.447,0,0,1-.751,1.266v.018a1.691,1.691,0,0,1,.492.3q.127.022.27.035t.261.013a2.029,2.029,0,0,0,.259-.018,1.449,1.449,0,0,0,.279-.066,1.516,1.516,0,0,0,.29-.136,1.735,1.735,0,0,0,.3-.229V-6.552H7.537v.646H6.614V0H5.893V-3.34l-.018,0a1.492,1.492,0,0,1-.47.22,1.933,1.933,0,0,1-.453.053q-.075,0-.154-.007l-.163-.015,0,.018a1.226,1.226,0,0,1,.07.444,1.793,1.793,0,0,1-.119.659,1.513,1.513,0,0,1-.341.525,1.543,1.543,0,0,1-.536.345A1.921,1.921,0,0,1,3-.98a1.86,1.86,0,0,1-.754-.147,2.393,2.393,0,0,1-.606-.38,2.774,2.774,0,0,1-.472-.525,4.625,4.625,0,0,1-.347-.587,4.945,4.945,0,0,1-.237-.56Q.492-3.445.448-3.621Z" transform="translate(11 15)" fill="#fff" stroke="#fff" stroke-width="0.5"/>
</svg>
