<svg xmlns="http://www.w3.org/2000/svg" xmlns:xlink="http://www.w3.org/1999/xlink" width="360" height="579" viewBox="0 0 360 579"><defs><clipPath id="a"><rect width="350" height="579" rx="14" transform="translate(608 64)" fill="#fff"/></clipPath><filter id="b" x="-31" y="-34" width="156" height="156" filterUnits="userSpaceOnUse"><feOffset dy="3" input="SourceAlpha"/><feGaussianBlur stdDeviation="3" result="c"/><feFlood flood-opacity="0.161"/><feComposite operator="in" in2="c"/><feComposite in="SourceGraphic"/></filter><filter id="d" x="0" y="427" width="360" height="120" filterUnits="userSpaceOnUse"><feOffset dy="3" input="SourceAlpha"/><feGaussianBlur stdDeviation="10" result="e"/><feFlood flood-color="#ee4e5e" flood-opacity="0.502"/><feComposite operator="in" in2="e"/><feComposite in="SourceGraphic"/></filter><filter id="f" x="21" y="244" width="318" height="152" filterUnits="userSpaceOnUse"><feOffset dy="3" input="SourceAlpha"/><feGaussianBlur stdDeviation="3" result="g"/><feFlood flood-opacity="0.102"/><feComposite operator="in" in2="g"/><feComposite in="SourceGraphic"/></filter><clipPath id="i"><rect width="360" height="579"/></clipPath></defs><g id="h" clip-path="url(#i)"><rect width="350" height="579" rx="14" transform="translate(5)" fill="#fff"/><g transform="translate(-603 -64)"><g clip-path="url(#a)"><g transform="matrix(1, 0, 0, 1, 603, 64)" filter="url(#b)"><path d="M0,38.617,38.617,0l-.51,51.192-1.05,105.353L.294,119.783Z" transform="translate(88.69 -28) rotate(45)" fill="gold"/></g></g><path d="M6.638,0H1.21V-9.8H2.837v8.429h3.8ZM8.675-8.47a.953.953,0,0,1-.667-.253.832.832,0,0,1-.277-.643.854.854,0,0,1,.277-.649.939.939,0,0,1,.667-.26.969.969,0,0,1,.684.26.849.849,0,0,1,.28.649.837.837,0,0,1-.28.632A.962.962,0,0,1,8.675-8.47ZM9.461,0H7.875V-7H9.461ZM22,0H20.412V-3.814A3.091,3.091,0,0,0,20.1-5.407,1.144,1.144,0,0,0,19.052-5.9,1.265,1.265,0,0,0,18-5.277a2.538,2.538,0,0,0-.434,1.49V0H15.969V-3.944q0-1.955-1.381-1.955a1.246,1.246,0,0,0-1.056.588,2.592,2.592,0,0,0-.414,1.524V0H11.532V-7h1.586v1.107h.027a2.425,2.425,0,0,1,2.208-1.271,2.082,2.082,0,0,1,1.268.4,1.992,1.992,0,0,1,.742,1.049,2.5,2.5,0,0,1,2.324-1.449Q22-7.164,22-4.313Zm2.734-8.47a.953.953,0,0,1-.667-.253.832.832,0,0,1-.277-.643.854.854,0,0,1,.277-.649.939.939,0,0,1,.667-.26.969.969,0,0,1,.684.26.849.849,0,0,1,.28.649.837.837,0,0,1-.28.632A.962.962,0,0,1,24.732-8.47ZM25.519,0H23.933V-7h1.586Zm5.763-.075a2.748,2.748,0,0,1-1.224.232q-2.037,0-2.037-1.955V-5.756H26.852V-7h1.169V-8.62l1.586-.451V-7h1.675v1.244H29.606v3.5a1.379,1.379,0,0,0,.226.889.936.936,0,0,0,.752.267,1.09,1.09,0,0,0,.7-.232Zm7.212-2.994H33.722a2.017,2.017,0,0,0,.6,1.5,2.225,2.225,0,0,0,1.569.526,3.459,3.459,0,0,0,2.058-.67V-.437a4.7,4.7,0,0,1-2.529.6A3.131,3.131,0,0,1,32.994-.79a3.814,3.814,0,0,1-.878-2.683,3.73,3.73,0,0,1,.967-2.663,3.164,3.164,0,0,1,2.4-1.029,2.759,2.759,0,0,1,2.222.923,3.832,3.832,0,0,1,.786,2.563ZM36.962-4.19a2.044,2.044,0,0,0-.4-1.33A1.348,1.348,0,0,0,35.465-6a1.539,1.539,0,0,0-1.159.5,2.28,2.28,0,0,0-.584,1.306ZM46.368,0H44.782V-1.189h-.027A2.53,2.53,0,0,1,42.4.164a2.546,2.546,0,0,1-2.068-.94,3.9,3.9,0,0,1-.776-2.56,4.251,4.251,0,0,1,.858-2.782A2.808,2.808,0,0,1,42.7-7.164a2.19,2.19,0,0,1,2.058,1.135h.027v-4.334h1.586ZM44.8-3.2v-.916a1.785,1.785,0,0,0-.485-1.265A1.619,1.619,0,0,0,43.08-5.9a1.666,1.666,0,0,0-1.4.663A2.955,2.955,0,0,0,41.173-3.4a2.648,2.648,0,0,0,.489,1.685,1.59,1.59,0,0,0,1.316.619,1.646,1.646,0,0,0,1.319-.6A2.253,2.253,0,0,0,44.8-3.2ZM56.506.164A4.409,4.409,0,0,1,53.112-1.21a5.047,5.047,0,0,1-1.275-3.575,5.347,5.347,0,0,1,1.3-3.773,4.563,4.563,0,0,1,3.527-1.408A4.311,4.311,0,0,1,59.989-8.6,5.064,5.064,0,0,1,61.25-5.024,5.364,5.364,0,0,1,59.958-1.23,4.48,4.48,0,0,1,56.506.164Zm.075-8.7a2.727,2.727,0,0,0-2.191,1,3.976,3.976,0,0,0-.844,2.646,4.014,4.014,0,0,0,.82,2.632,2.645,2.645,0,0,0,2.146,1,2.771,2.771,0,0,0,2.222-.95,3.964,3.964,0,0,0,.813-2.659,4.156,4.156,0,0,0-.79-2.714A2.669,2.669,0,0,0,56.581-8.538Zm10.247-.533a1.442,1.442,0,0,0-.731-.185q-1.155,0-1.155,1.306V-7h1.627v1.244h-1.62V0H63.362V-5.756h-1.2V-7h1.2V-8.135a2.209,2.209,0,0,1,.725-1.747,2.639,2.639,0,0,1,1.812-.639,2.69,2.69,0,0,1,.93.13Zm4.826,0a1.442,1.442,0,0,0-.731-.185q-1.155,0-1.155,1.306V-7h1.627v1.244h-1.62V0H68.188V-5.756h-1.2V-7h1.2V-8.135a2.209,2.209,0,0,1,.725-1.747,2.639,2.639,0,0,1,1.812-.639,2.69,2.69,0,0,1,.93.13Zm6.795,6H73.678a2.017,2.017,0,0,0,.6,1.5,2.225,2.225,0,0,0,1.569.526,3.459,3.459,0,0,0,2.058-.67V-.437a4.7,4.7,0,0,1-2.529.6A3.131,3.131,0,0,1,72.95-.79a3.814,3.814,0,0,1-.878-2.683,3.73,3.73,0,0,1,.967-2.663,3.164,3.164,0,0,1,2.4-1.029,2.759,2.759,0,0,1,2.222.923,3.832,3.832,0,0,1,.786,2.563ZM76.918-4.19a2.044,2.044,0,0,0-.4-1.33A1.348,1.348,0,0,0,75.421-6a1.539,1.539,0,0,0-1.159.5,2.28,2.28,0,0,0-.584,1.306Zm7.1-1.3a1.315,1.315,0,0,0-.827-.226,1.416,1.416,0,0,0-1.176.636,2.843,2.843,0,0,0-.472,1.729V0H79.96V-7h1.586v1.442h.027a2.438,2.438,0,0,1,.714-1.152,1.612,1.612,0,0,1,1.077-.414,1.337,1.337,0,0,1,.656.13Z" transform="matrix(0.695, -0.719, 0.719, 0.695, 623.675, 139.033)"/></g><g transform="translate(-1081 -313)"><path d="M-38-9.8l-3.213,6.241V0h-1.627V-3.527L-45.972-9.8h1.853l1.928,4.2q.034.075.205.567h.021A3.881,3.881,0,0,1-41.74-5.6l2.017-4.2ZM-35.068.164a3.47,3.47,0,0,1-2.587-.981,3.544,3.544,0,0,1-.967-2.6,3.687,3.687,0,0,1,1.008-2.755A3.708,3.708,0,0,1-34.9-7.164a3.358,3.358,0,0,1,2.557.964,3.723,3.723,0,0,1,.916,2.673,3.669,3.669,0,0,1-.988,2.683A3.548,3.548,0,0,1-35.068.164Zm.075-6.063a1.81,1.81,0,0,0-1.47.649A2.719,2.719,0,0,0-37-3.459a2.561,2.561,0,0,0,.547,1.733,1.837,1.837,0,0,0,1.463.632,1.743,1.743,0,0,0,1.439-.622,2.754,2.754,0,0,0,.5-1.771,2.8,2.8,0,0,0-.5-1.784A1.734,1.734,0,0,0-34.993-5.9ZM-23.707,0h-1.586V-1.107h-.027A2.282,2.282,0,0,1-27.467.164q-2.481,0-2.481-2.98V-7h1.586v4.02q0,1.887,1.456,1.887a1.471,1.471,0,0,0,1.159-.52,1.991,1.991,0,0,0,.455-1.36V-7h1.586ZM-8.381-7l-2.064,7h-1.661l-1.271-4.744a3,3,0,0,1-.1-.615H-13.5a2.8,2.8,0,0,1-.123.6L-15,0h-1.627l-2.058-7h1.641l1.271,5.045a2.989,2.989,0,0,1,.082.6h.048a3.249,3.249,0,0,1,.109-.615L-14.123-7h1.49l1.258,5.065a3.543,3.543,0,0,1,.089.6h.048a3.19,3.19,0,0,1,.1-.6L-9.892-7Zm1.976-1.47a.953.953,0,0,1-.667-.253.832.832,0,0,1-.277-.643.854.854,0,0,1,.277-.649.939.939,0,0,1,.667-.26.969.969,0,0,1,.684.26.849.849,0,0,1,.28.649.837.837,0,0,1-.28.632A.962.962,0,0,1-6.405-8.47ZM-5.619,0H-7.205V-7h1.586Zm3.664,0H-3.548V-10.363h1.593ZM1.7,0H.109V-10.363H1.7ZM9.413-3.555V0H7.793V-9.8h2.974a3.939,3.939,0,0,1,2.618.786,2.741,2.741,0,0,1,.93,2.215,3.06,3.06,0,0,1-.971,2.338,3.686,3.686,0,0,1-2.625.909Zm0-4.908v3.582h1.053a2.328,2.328,0,0,0,1.593-.485,1.732,1.732,0,0,0,.547-1.367q0-1.729-2.01-1.729ZM20.768,0H19.229V-1.094H19.2A2.316,2.316,0,0,1,17.076.164,2.239,2.239,0,0,1,15.459-.4a1.961,1.961,0,0,1-.584-1.483q0-1.982,2.283-2.311l2.078-.294q0-1.5-1.422-1.5a3.378,3.378,0,0,0-2.256.861V-6.508a4.919,4.919,0,0,1,2.557-.656,2.326,2.326,0,0,1,2.652,2.611ZM19.236-3.438l-1.47.205a2.33,2.33,0,0,0-1.029.332.969.969,0,0,0-.345.851.932.932,0,0,0,.318.728,1.231,1.231,0,0,0,.851.284,1.57,1.57,0,0,0,1.2-.509,1.806,1.806,0,0,0,.475-1.282ZM28.766-7,25.607,1.121q-.984,2.174-2.762,2.174a3.311,3.311,0,0,1-.834-.089V1.887a2.218,2.218,0,0,0,.684.123,1.411,1.411,0,0,0,1.326-.875l.472-1.148L21.711-7h1.757l1.668,5.086q.027.1.123.506h.034q.034-.157.123-.492L27.166-7Zm4.765-.561h3.213a1.489,1.489,0,0,0-.181-.461,1.1,1.1,0,0,0-.355-.355,1.8,1.8,0,0,0-.567-.226,3.588,3.588,0,0,0-.8-.079H33.523L33.53-9.8h6.378v1.121H37.857a1.9,1.9,0,0,1,.325.5,2.117,2.117,0,0,1,.167.622h1.565v1.114h-1.6a2.426,2.426,0,0,1-.728,1.292,3.031,3.031,0,0,1-1.453.738v.027a2.671,2.671,0,0,1,.431.253,2.878,2.878,0,0,1,.383.335,4.312,4.312,0,0,1,.366.438q.181.246.386.554L39.546,0H37.728L36.169-2.522q-.226-.369-.427-.646a2.408,2.408,0,0,0-.431-.461,1.613,1.613,0,0,0-.506-.277A2.045,2.045,0,0,0,34.159-4H33.53V-5.188h1.3a2.343,2.343,0,0,0,.663-.092,2.03,2.03,0,0,0,.564-.26,1.761,1.761,0,0,0,.424-.4,1.455,1.455,0,0,0,.25-.509h-3.2Zm11.081-2.461V0H43.025V-8.08a5.052,5.052,0,0,1-.926.523,7.635,7.635,0,0,1-1.131.379V-8.531q.4-.13.766-.273t.728-.321q.359-.178.725-.4t.755-.5ZM-69.118,11.453l-1.873.383,1.3,1.661-.752.52-1.066-1.812-1.08,1.812-.752-.52,1.3-1.661-1.887-.383.308-.854,1.791.677L-71.989,9.2h.943l-.157,2.078,1.8-.677Zm6.768-1.217h-3.828v3.391h3.541v1.032h-3.541V19h-1.148V9.2h4.977Zm4.635,8.928a3.247,3.247,0,0,1-2.478-.981,3.634,3.634,0,0,1-.926-2.6,3.785,3.785,0,0,1,.964-2.755,3.465,3.465,0,0,1,2.6-.991,3.14,3.14,0,0,1,2.444.964,3.822,3.822,0,0,1,.878,2.673,3.761,3.761,0,0,1-.947,2.683A3.317,3.317,0,0,1-57.716,19.164Zm.082-6.385a2.132,2.132,0,0,0-1.709.735,3.018,3.018,0,0,0-.629,2.027,2.854,2.854,0,0,0,.636,1.962,2.161,2.161,0,0,0,1.7.718,2.049,2.049,0,0,0,1.671-.7,3.055,3.055,0,0,0,.584-2,3.108,3.108,0,0,0-.584-2.023A2.04,2.04,0,0,0-57.634,12.779Zm8.846.355a1.371,1.371,0,0,0-.848-.226,1.431,1.431,0,0,0-1.2.677,3.129,3.129,0,0,0-.482,1.846V19h-1.121V12h1.121v1.442h.027a2.444,2.444,0,0,1,.731-1.152,1.668,1.668,0,0,1,1.1-.414,1.83,1.83,0,0,1,.67.1Zm10.179-2.9h-3.828v3.391H-38.9v1.032h-3.541V19h-1.148V9.2h4.977Zm2.283-.014a.71.71,0,0,1-.513-.205.692.692,0,0,1-.212-.52.7.7,0,0,1,.212-.523.7.7,0,0,1,.513-.208.724.724,0,0,1,.523.208.7.7,0,0,1,.215.523.693.693,0,0,1-.215.513A.718.718,0,0,1-36.326,10.223ZM-35.779,19H-36.9V12h1.121Zm5.92-5.865a1.371,1.371,0,0,0-.848-.226,1.431,1.431,0,0,0-1.2.677,3.129,3.129,0,0,0-.482,1.846V19H-33.51V12h1.121v1.442h.027a2.444,2.444,0,0,1,.731-1.152,1.668,1.668,0,0,1,1.1-.414,1.83,1.83,0,0,1,.67.1Zm.793,5.612v-1.2a3.318,3.318,0,0,0,2.017.677q1.477,0,1.477-.984a.854.854,0,0,0-.126-.475,1.26,1.26,0,0,0-.342-.345,2.631,2.631,0,0,0-.506-.27q-.291-.12-.625-.25a8.056,8.056,0,0,1-.817-.373,2.468,2.468,0,0,1-.588-.424,1.577,1.577,0,0,1-.355-.537,1.9,1.9,0,0,1-.12-.7,1.673,1.673,0,0,1,.226-.872,2,2,0,0,1,.6-.636,2.805,2.805,0,0,1,.858-.386,3.805,3.805,0,0,1,.995-.13,4.016,4.016,0,0,1,1.627.314v1.135a3.171,3.171,0,0,0-1.777-.506,2.078,2.078,0,0,0-.567.072,1.389,1.389,0,0,0-.434.2.932.932,0,0,0-.28.311.819.819,0,0,0-.1.4.959.959,0,0,0,.1.458,1.008,1.008,0,0,0,.291.328,2.221,2.221,0,0,0,.465.26q.273.116.622.253a8.658,8.658,0,0,1,.834.366,2.86,2.86,0,0,1,.629.424,1.656,1.656,0,0,1,.4.543,1.753,1.753,0,0,1,.14.731,1.725,1.725,0,0,1-.229.9,1.963,1.963,0,0,1-.612.636,2.8,2.8,0,0,1-.882.376,4.354,4.354,0,0,1-1.046.123A3.971,3.971,0,0,1-29.066,18.747Zm9.611.185a2.161,2.161,0,0,1-1.046.219q-1.839,0-1.839-2.051V12.957h-1.2V12h1.2V10.291l1.121-.362V12h1.764v.957h-1.764V16.9a1.635,1.635,0,0,0,.239,1,.955.955,0,0,0,.793.3,1.179,1.179,0,0,0,.731-.232ZM-6.945,19H-8.312l-1.641-2.748a5.985,5.985,0,0,0-.437-.653,2.494,2.494,0,0,0-.434-.441,1.5,1.5,0,0,0-.479-.25,1.968,1.968,0,0,0-.578-.079h-.943V19h-1.148V9.2h2.926a4.17,4.17,0,0,1,1.186.161,2.654,2.654,0,0,1,.943.489,2.271,2.271,0,0,1,.625.817,2.709,2.709,0,0,1,.226,1.145,2.757,2.757,0,0,1-.154.94,2.455,2.455,0,0,1-.437.762,2.652,2.652,0,0,1-.684.571,3.49,3.49,0,0,1-.9.366v.027a2.068,2.068,0,0,1,.427.25,2.351,2.351,0,0,1,.345.332,4.392,4.392,0,0,1,.325.434q.161.243.359.564Zm-5.879-8.764v3.555h1.559a2.364,2.364,0,0,0,.8-.13,1.844,1.844,0,0,0,.632-.373,1.69,1.69,0,0,0,.417-.595,1.991,1.991,0,0,0,.15-.79,1.537,1.537,0,0,0-.509-1.227,2.188,2.188,0,0,0-1.473-.441ZM-.533,15.78H-5.476a2.618,2.618,0,0,0,.629,1.8,2.168,2.168,0,0,0,1.654.636,3.439,3.439,0,0,0,2.174-.779v1.053a4.063,4.063,0,0,1-2.44.67A2.959,2.959,0,0,1-5.79,18.21a3.9,3.9,0,0,1-.848-2.683,3.828,3.828,0,0,1,.926-2.663,2.97,2.97,0,0,1,2.3-1.029,2.632,2.632,0,0,1,2.126.889,3.705,3.705,0,0,1,.752,2.468Zm-1.148-.95a2.281,2.281,0,0,0-.468-1.511,1.6,1.6,0,0,0-1.282-.54,1.811,1.811,0,0,0-1.347.567,2.575,2.575,0,0,0-.684,1.483Zm7.615,3.849a3.643,3.643,0,0,1-1.914.485A3.169,3.169,0,0,1,1.6,18.19a3.53,3.53,0,0,1-.919-2.526,3.881,3.881,0,0,1,.991-2.779A3.467,3.467,0,0,1,4.32,11.836a3.682,3.682,0,0,1,1.627.342v1.148a2.85,2.85,0,0,0-1.668-.547,2.254,2.254,0,0,0-1.76.769,2.918,2.918,0,0,0-.687,2.02,2.779,2.779,0,0,0,.646,1.941,2.227,2.227,0,0,0,1.733.711,2.81,2.81,0,0,0,1.723-.608ZM13.439,19H12.318V14.967q0-2.187-1.627-2.187a1.774,1.774,0,0,0-1.381.632,2.356,2.356,0,0,0-.561,1.624V19H7.629V8.637H8.75v4.525h.027a2.546,2.546,0,0,1,2.3-1.326q2.365,0,2.365,2.851Zm7.123,0H19.441V17.906h-.027a2.347,2.347,0,0,1-2.153,1.258,2.3,2.3,0,0,1-1.637-.554,1.918,1.918,0,0,1-.591-1.47q0-1.962,2.311-2.283l2.1-.294q0-1.784-1.442-1.784a3.446,3.446,0,0,0-2.283.861V12.492a4.338,4.338,0,0,1,2.379-.656q2.468,0,2.468,2.611Zm-1.121-3.541-1.688.232a2.741,2.741,0,0,0-1.176.386,1.114,1.114,0,0,0-.4.981,1.068,1.068,0,0,0,.366.837,1.413,1.413,0,0,0,.974.325,1.8,1.8,0,0,0,1.377-.584,2.088,2.088,0,0,0,.543-1.48Zm6.884-2.324a1.371,1.371,0,0,0-.848-.226,1.431,1.431,0,0,0-1.2.677,3.129,3.129,0,0,0-.482,1.846V19H22.675V12H23.8v1.442h.027a2.444,2.444,0,0,1,.731-1.152,1.668,1.668,0,0,1,1.1-.414,1.83,1.83,0,0,1,.67.1Zm7.191,5.3q0,3.855-3.691,3.855a4.956,4.956,0,0,1-2.27-.492V20.682a4.661,4.661,0,0,0,2.256.656q2.584,0,2.584-2.748v-.766h-.027a2.832,2.832,0,0,1-4.508.407,3.73,3.73,0,0,1-.8-2.505,4.358,4.358,0,0,1,.858-2.837,2.866,2.866,0,0,1,2.348-1.053,2.282,2.282,0,0,1,2.1,1.135H32.4V12h1.121Zm-1.121-2.6V14.8a2,2,0,0,0-.564-1.429,1.857,1.857,0,0,0-1.4-.595,1.947,1.947,0,0,0-1.627.755,3.372,3.372,0,0,0-.588,2.116,2.894,2.894,0,0,0,.564,1.87,1.822,1.822,0,0,0,1.494.7,1.951,1.951,0,0,0,1.535-.67A2.5,2.5,0,0,0,32.4,15.835Zm9.017-.055H36.47a2.618,2.618,0,0,0,.629,1.8,2.168,2.168,0,0,0,1.654.636,3.439,3.439,0,0,0,2.174-.779v1.053a4.063,4.063,0,0,1-2.44.67,2.959,2.959,0,0,1-2.331-.954,3.9,3.9,0,0,1-.848-2.683,3.828,3.828,0,0,1,.926-2.663,2.97,2.97,0,0,1,2.3-1.029,2.632,2.632,0,0,1,2.126.889,3.705,3.705,0,0,1,.752,2.468Zm-1.148-.95a2.281,2.281,0,0,0-.468-1.511,1.6,1.6,0,0,0-1.282-.54,1.811,1.811,0,0,0-1.347.567,2.575,2.575,0,0,0-.684,1.483Zm10.78,4.334A4.3,4.3,0,0,1,47.7,17.79a5.1,5.1,0,0,1-1.254-3.575,5.4,5.4,0,0,1,1.278-3.773,4.465,4.465,0,0,1,3.479-1.408A4.206,4.206,0,0,1,54.479,10.4a5.115,5.115,0,0,1,1.241,3.575,5.417,5.417,0,0,1-1.271,3.794A4.382,4.382,0,0,1,51.044,19.164Zm.082-9.092a3.16,3.16,0,0,0-2.509,1.114,4.314,4.314,0,0,0-.964,2.926,4.344,4.344,0,0,0,.94,2.916,3.065,3.065,0,0,0,2.451,1.1,3.218,3.218,0,0,0,2.543-1.053,4.3,4.3,0,0,0,.93-2.946,4.5,4.5,0,0,0-.9-3A3.094,3.094,0,0,0,51.126,10.072ZM63.308,19H62.187V15.008q0-2.229-1.627-2.229a1.765,1.765,0,0,0-1.391.632,2.344,2.344,0,0,0-.55,1.6V19H57.5V12h1.121v1.162h.027a2.526,2.526,0,0,1,2.3-1.326,2.142,2.142,0,0,1,1.757.742,3.3,3.3,0,0,1,.608,2.143Zm3.233,0H65.42V8.637h1.121Zm7.841-7-3.22,8.121q-.861,2.174-2.42,2.174a2.565,2.565,0,0,1-.731-.089v-1a2.078,2.078,0,0,0,.663.123,1.374,1.374,0,0,0,1.271-1.012l.561-1.326L67.771,12h1.244l1.894,5.387q.034.1.144.533h.041q.034-.164.137-.52L73.22,12Z" transform="translate(1267 854)"/><g transform="translate(182.457 211)"><g transform="matrix(1, 0, 0, 1, 898.54, 102)" filter="url(#d)"><rect width="300" height="60" rx="30" transform="translate(30 454)" fill="#ee4e5e"/></g><path d="M-58.153-4.57V0h-2.083V-12.6h3.823a5.064,5.064,0,0,1,3.366,1.011,3.525,3.525,0,0,1,1.2,2.848A3.934,3.934,0,0,1-53.1-5.739,4.739,4.739,0,0,1-56.474-4.57Zm0-6.311v4.605H-56.8A2.993,2.993,0,0,0-54.751-6.9a2.227,2.227,0,0,0,.7-1.758q0-2.224-2.584-2.224Zm13.43,3.823a1.69,1.69,0,0,0-1.063-.29A1.82,1.82,0,0,0-47.3-6.53,3.655,3.655,0,0,0-47.9-4.307V0h-2.039V-9H-47.9v1.854h.035a3.135,3.135,0,0,1,.918-1.481,2.073,2.073,0,0,1,1.384-.532,1.718,1.718,0,0,1,.844.167ZM-39.45.211A4.461,4.461,0,0,1-42.776-1.05,4.556,4.556,0,0,1-44.02-4.395a4.741,4.741,0,0,1,1.3-3.542A4.767,4.767,0,0,1-39.23-9.211a4.318,4.318,0,0,1,3.287,1.239,4.787,4.787,0,0,1,1.178,3.437,4.717,4.717,0,0,1-1.27,3.45A4.562,4.562,0,0,1-39.45.211Zm.1-7.8a2.328,2.328,0,0,0-1.89.835,3.5,3.5,0,0,0-.694,2.3,3.293,3.293,0,0,0,.7,2.228,2.362,2.362,0,0,0,1.881.813,2.241,2.241,0,0,0,1.85-.8,3.54,3.54,0,0,0,.646-2.276A3.594,3.594,0,0,0-37.5-6.776,2.23,2.23,0,0,0-39.353-7.585Zm13.1,7.172a5.029,5.029,0,0,1-2.558.624,4.331,4.331,0,0,1-3.234-1.252,4.437,4.437,0,0,1-1.23-3.248,4.883,4.883,0,0,1,1.323-3.573,4.729,4.729,0,0,1,3.538-1.349,5.164,5.164,0,0,1,2.171.431v1.9a3.288,3.288,0,0,0-2-.7,2.785,2.785,0,0,0-2.118.875,3.2,3.2,0,0,0-.826,2.29,3.049,3.049,0,0,0,.778,2.206,2.762,2.762,0,0,0,2.087.809,3.262,3.262,0,0,0,2.074-.782Zm9.642-3.533h-6.135a2.593,2.593,0,0,0,.769,1.925,2.861,2.861,0,0,0,2.017.677,4.448,4.448,0,0,0,2.646-.861V-.562a6.044,6.044,0,0,1-3.252.773,4.026,4.026,0,0,1-3.116-1.226,4.9,4.9,0,0,1-1.129-3.45,4.8,4.8,0,0,1,1.244-3.423,4.068,4.068,0,0,1,3.089-1.323,3.547,3.547,0,0,1,2.856,1.187,4.926,4.926,0,0,1,1.011,3.3Zm-1.969-1.441A2.627,2.627,0,0,0-19.094-7.1,1.733,1.733,0,0,0-20.5-7.708a1.979,1.979,0,0,0-1.49.642,2.931,2.931,0,0,0-.751,1.679ZM-7.044-3.946h-6.135a2.593,2.593,0,0,0,.769,1.925,2.861,2.861,0,0,0,2.017.677,4.448,4.448,0,0,0,2.646-.861V-.562A6.044,6.044,0,0,1-11,.211a4.026,4.026,0,0,1-3.116-1.226,4.9,4.9,0,0,1-1.129-3.45A4.8,4.8,0,0,1-14-7.888a4.068,4.068,0,0,1,3.089-1.323A3.547,3.547,0,0,1-8.055-8.024a4.926,4.926,0,0,1,1.011,3.3ZM-9.013-5.388A2.627,2.627,0,0,0-9.532-7.1a1.733,1.733,0,0,0-1.406-.611,1.979,1.979,0,0,0-1.49.642,2.931,2.931,0,0,0-.751,1.679ZM3.081,0H1.042V-1.529H1.006A3.252,3.252,0,0,1-2.026.211,3.273,3.273,0,0,1-4.685-1a5.017,5.017,0,0,1-1-3.292,5.465,5.465,0,0,1,1.1-3.577,3.61,3.61,0,0,1,2.94-1.345A2.815,2.815,0,0,1,1.006-7.752h.035v-5.572H3.081ZM1.068-4.113V-5.291A2.3,2.3,0,0,0,.444-6.917a2.081,2.081,0,0,0-1.591-.668,2.142,2.142,0,0,0-1.8.853A3.8,3.8,0,0,0-3.6-4.368,3.4,3.4,0,0,0-2.971-2.2a2.044,2.044,0,0,0,1.692.8,2.116,2.116,0,0,0,1.7-.769A2.9,2.9,0,0,0,1.068-4.113Zm17.938-6.715H15.385V0H13.293V-10.828H9.681V-12.6h9.325ZM22.865.211A4.461,4.461,0,0,1,19.538-1.05a4.556,4.556,0,0,1-1.244-3.344,4.741,4.741,0,0,1,1.3-3.542,4.767,4.767,0,0,1,3.494-1.274,4.318,4.318,0,0,1,3.287,1.239,4.787,4.787,0,0,1,1.178,3.437,4.717,4.717,0,0,1-1.27,3.45A4.562,4.562,0,0,1,22.865.211Zm.1-7.8a2.328,2.328,0,0,0-1.89.835,3.5,3.5,0,0,0-.694,2.3,3.293,3.293,0,0,0,.7,2.228,2.362,2.362,0,0,0,1.881.813,2.241,2.241,0,0,0,1.85-.8,3.54,3.54,0,0,0,.646-2.276,3.594,3.594,0,0,0-.646-2.294A2.23,2.23,0,0,0,22.961-7.585ZM36.883-4.57V0H34.8V-12.6h3.823a5.064,5.064,0,0,1,3.366,1.011,3.525,3.525,0,0,1,1.2,2.848,3.934,3.934,0,0,1-1.248,3.006A4.739,4.739,0,0,1,38.562-4.57Zm0-6.311v4.605h1.354A2.993,2.993,0,0,0,40.285-6.9a2.227,2.227,0,0,0,.7-1.758q0-2.224-2.584-2.224ZM51.482,0H49.5V-1.406h-.035A2.978,2.978,0,0,1,46.736.211,2.879,2.879,0,0,1,44.657-.51a2.521,2.521,0,0,1-.751-1.907q0-2.549,2.936-2.971l2.672-.378q0-1.925-1.828-1.925a4.343,4.343,0,0,0-2.9,1.107V-8.367a6.325,6.325,0,0,1,3.287-.844q3.41,0,3.41,3.357ZM49.513-4.421l-1.89.264a3,3,0,0,0-1.323.426,1.246,1.246,0,0,0-.444,1.094,1.2,1.2,0,0,0,.409.936,1.583,1.583,0,0,0,1.094.365A2.019,2.019,0,0,0,48.9-1.991a2.322,2.322,0,0,0,.611-1.648ZM61.765-9,57.7,1.441q-1.266,2.795-3.551,2.795a4.258,4.258,0,0,1-1.072-.114v-1.7a2.852,2.852,0,0,0,.879.158,1.814,1.814,0,0,0,1.705-1.125l.606-1.477L52.695-9h2.259L57.1-2.461q.035.123.158.65H57.3q.044-.2.158-.633L59.708-9Z" transform="translate(1078.543 593)" fill="#fff"/></g></g><path d="M18.172,13h-1.91L12.8,7.721a7.634,7.634,0,0,1-.422-.7h-.023q.047.445.047,1.359V13H10.613V4.6h2.039l3.334,5.115q.229.346.422.686h.023a8.984,8.984,0,0,1-.047-1.154V4.6h1.787Zm4.6.146a3.225,3.225,0,0,1-2.358-.841,3.048,3.048,0,0,1-.858-2.282,3.048,3.048,0,0,1,.891-2.329,3.365,3.365,0,0,1,2.408-.841,3.186,3.186,0,0,1,2.344.841,2.989,2.989,0,0,1,.85,2.224,3.173,3.173,0,0,1-.876,2.361A3.261,3.261,0,0,1,22.771,13.146Zm.047-4.875a1.235,1.235,0,0,0-1.02.451A1.99,1.99,0,0,0,21.436,10q0,1.729,1.395,1.729,1.33,0,1.33-1.775Q24.16,8.271,22.818,8.271Zm8.057,4.658a2.737,2.737,0,0,1-1.236.217q-1.957,0-1.957-2.033V8.365h-.973V7h.973V5.705l1.846-.527V7h1.348V8.365H29.527v2.426q0,.938.744.938a1.255,1.255,0,0,0,.6-.17Zm6.387-2.4H33.348q.094,1.307,1.646,1.307a3.214,3.214,0,0,0,1.74-.469V12.7a4.572,4.572,0,0,1-2.162.445,3.044,3.044,0,0,1-2.256-.806,3.044,3.044,0,0,1-.8-2.247,3.211,3.211,0,0,1,.867-2.367,2.889,2.889,0,0,1,2.133-.873,2.622,2.622,0,0,1,2.03.779,3,3,0,0,1,.718,2.115ZM35.545,9.391Q35.545,8.1,34.5,8.1a1,1,0,0,0-.771.369,1.675,1.675,0,0,0-.4.92Zm3.645-.533a1.087,1.087,0,0,1-.762-.278.9.9,0,0,1-.3-.688.871.871,0,0,1,.313-.691,1.158,1.158,0,0,1,.782-.27A1.114,1.114,0,0,1,40,7.2a.94.94,0,0,1-.006,1.386A1.169,1.169,0,0,1,39.189,8.857Zm0,4.289a1.08,1.08,0,0,1-.762-.281.9.9,0,0,1-.3-.691.871.871,0,0,1,.313-.691,1.158,1.158,0,0,1,.782-.27,1.114,1.114,0,0,1,.776.272.944.944,0,0,1-.006,1.389A1.161,1.161,0,0,1,39.189,13.146ZM53.973,4.6,51.2,9.895V13h-.984V9.918l-2.7-5.32h1.119l1.881,3.8q.035.07.205.516h.018a3.082,3.082,0,0,1,.223-.516L52.93,4.6Zm2.5,8.543a2.783,2.783,0,0,1-2.124-.841,3.114,3.114,0,0,1-.794-2.229,3.244,3.244,0,0,1,.826-2.361,2.97,2.97,0,0,1,2.232-.85,2.691,2.691,0,0,1,2.095.826,3.276,3.276,0,0,1,.753,2.291,3.223,3.223,0,0,1-.812,2.3A2.844,2.844,0,0,1,56.469,13.141Zm.07-5.473a1.828,1.828,0,0,0-1.465.63,2.587,2.587,0,0,0-.539,1.737,2.447,2.447,0,0,0,.545,1.682,1.852,1.852,0,0,0,1.459.615,1.757,1.757,0,0,0,1.433-.6,2.619,2.619,0,0,0,.5-1.717,2.664,2.664,0,0,0-.5-1.734A1.749,1.749,0,0,0,56.539,7.668ZM65.844,13h-.961v-.949h-.023a1.973,1.973,0,0,1-1.852,1.09q-2.145,0-2.145-2.555V7h.955v3.434q0,1.9,1.453,1.9a1.47,1.47,0,0,0,1.157-.519,1.984,1.984,0,0,0,.454-1.356V7h.961ZM78.629,7l-1.8,6h-1L74.6,8.705a2.8,2.8,0,0,1-.094-.557H74.48a2.628,2.628,0,0,1-.123.545L73.016,13h-.961L70.238,7h1.008l1.242,4.512a2.718,2.718,0,0,1,.082.539h.047a2.521,2.521,0,0,1,.105-.551L74.105,7h.879l1.242,4.523a3.229,3.229,0,0,1,.088.539h.047a2.493,2.493,0,0,1,.1-.539L77.68,7Zm1.605-1.523a.609.609,0,0,1-.439-.176.593.593,0,0,1-.182-.445.615.615,0,0,1,.621-.627.621.621,0,0,1,.448.179.626.626,0,0,1,0,.888A.615.615,0,0,1,80.234,5.477ZM80.7,13h-.961V7H80.7Zm2.906,0h-.961V4.117h.961Zm2.906,0h-.961V4.117h.961Zm6.217-.867h-.023V13h-.961V4.117h.961V8.055h.023a2.272,2.272,0,0,1,2.074-1.2,2.2,2.2,0,0,1,1.808.806,3.327,3.327,0,0,1,.653,2.159,3.719,3.719,0,0,1-.732,2.411,2.439,2.439,0,0,1-2,.905A1.974,1.974,0,0,1,92.732,12.133Zm-.023-2.42v.838a1.784,1.784,0,0,0,.483,1.263,1.725,1.725,0,0,0,2.6-.149,3.064,3.064,0,0,0,.5-1.857,2.419,2.419,0,0,0-.463-1.57,1.532,1.532,0,0,0-1.254-.568,1.7,1.7,0,0,0-1.348.583A2.141,2.141,0,0,0,92.709,9.713Zm10.916.527H99.389a2.244,2.244,0,0,0,.539,1.547,1.858,1.858,0,0,0,1.418.545,2.948,2.948,0,0,0,1.863-.668v.9a3.482,3.482,0,0,1-2.092.574,2.536,2.536,0,0,1-2-.817,3.346,3.346,0,0,1-.727-2.3,3.281,3.281,0,0,1,.794-2.282,2.546,2.546,0,0,1,1.972-.882,2.256,2.256,0,0,1,1.822.762,3.176,3.176,0,0,1,.645,2.115Zm-.984-.814a1.955,1.955,0,0,0-.4-1.295,1.368,1.368,0,0,0-1.1-.463,1.552,1.552,0,0,0-1.154.486A2.207,2.207,0,0,0,99.4,9.426Zm9.814,3.3a3.122,3.122,0,0,1-1.641.416,2.716,2.716,0,0,1-2.071-.835,3.026,3.026,0,0,1-.788-2.165,3.326,3.326,0,0,1,.85-2.382,2.972,2.972,0,0,1,2.268-.9,3.156,3.156,0,0,1,1.395.293v.984a2.443,2.443,0,0,0-1.43-.469,1.932,1.932,0,0,0-1.509.659,2.5,2.5,0,0,0-.589,1.731,2.382,2.382,0,0,0,.554,1.664,1.909,1.909,0,0,0,1.485.609,2.408,2.408,0,0,0,1.477-.521Zm6.434.275h-.961V9.543q0-1.875-1.395-1.875a1.52,1.52,0,0,0-1.184.542,2.02,2.02,0,0,0-.48,1.392V13h-.961V4.117h.961V8h.023a2.182,2.182,0,0,1,1.969-1.137q2.027,0,2.027,2.443Zm6.105,0h-.961v-.937h-.023a2.012,2.012,0,0,1-1.846,1.078,1.973,1.973,0,0,1-1.4-.475,1.644,1.644,0,0,1-.507-1.26q0-1.682,1.98-1.957l1.8-.252q0-1.529-1.236-1.529a2.954,2.954,0,0,0-1.957.738V7.422a3.718,3.718,0,0,1,2.039-.562q2.115,0,2.115,2.238Zm-.961-3.035-1.447.2a2.35,2.35,0,0,0-1.008.331.955.955,0,0,0-.34.841.916.916,0,0,0,.313.718,1.211,1.211,0,0,0,.835.278,1.542,1.542,0,0,0,1.181-.5,1.79,1.79,0,0,0,.466-1.269Zm5.9-1.992a1.175,1.175,0,0,0-.727-.193,1.226,1.226,0,0,0-1.028.58,2.682,2.682,0,0,0-.413,1.582V13H126.8V7h.961V8.236h.023a2.1,2.1,0,0,1,.627-.987,1.43,1.43,0,0,1,.943-.354,1.569,1.569,0,0,1,.574.082ZM136.1,12.52q0,3.3-3.164,3.3a4.248,4.248,0,0,1-1.945-.422v-.961a4,4,0,0,0,1.934.563q2.215,0,2.215-2.355v-.656h-.023a2.428,2.428,0,0,1-3.864.349,3.2,3.2,0,0,1-.683-2.147,3.735,3.735,0,0,1,.735-2.432,2.457,2.457,0,0,1,2.013-.9,1.956,1.956,0,0,1,1.8.973h.023V7h.961Zm-.961-2.232V9.4a1.717,1.717,0,0,0-.483-1.225,1.591,1.591,0,0,0-1.2-.51,1.669,1.669,0,0,0-1.395.647,2.89,2.89,0,0,0-.5,1.813,2.481,2.481,0,0,0,.483,1.6,1.562,1.562,0,0,0,1.28.6,1.673,1.673,0,0,0,1.315-.574A2.14,2.14,0,0,0,135.137,10.287Zm7.729-.047h-4.236a2.244,2.244,0,0,0,.539,1.547,1.858,1.858,0,0,0,1.418.545,2.948,2.948,0,0,0,1.863-.668v.9a3.482,3.482,0,0,1-2.092.574,2.536,2.536,0,0,1-2-.817,3.346,3.346,0,0,1-.727-2.3,3.281,3.281,0,0,1,.794-2.282,2.546,2.546,0,0,1,1.972-.882,2.256,2.256,0,0,1,1.822.762,3.176,3.176,0,0,1,.645,2.115Zm-.984-.814a1.955,1.955,0,0,0-.4-1.295,1.368,1.368,0,0,0-1.1-.463,1.552,1.552,0,0,0-1.154.486,2.207,2.207,0,0,0-.586,1.271ZM149.439,13h-.961V11.98h-.023a2.218,2.218,0,0,1-2.062,1.16,2.241,2.241,0,0,1-1.808-.806,3.305,3.305,0,0,1-.677-2.194,3.6,3.6,0,0,1,.75-2.385,2.474,2.474,0,0,1,2-.9,1.923,1.923,0,0,1,1.8.973h.023V4.117h.961Zm-.961-2.713V9.4a1.717,1.717,0,0,0-.48-1.23,1.612,1.612,0,0,0-1.219-.5,1.659,1.659,0,0,0-1.383.645,2.824,2.824,0,0,0-.5,1.781,2.54,2.54,0,0,0,.483,1.638,1.58,1.58,0,0,0,1.3.6,1.641,1.641,0,0,0,1.3-.58A2.161,2.161,0,0,0,148.479,10.287Zm8.7,2.854a2.783,2.783,0,0,1-2.124-.841,3.114,3.114,0,0,1-.794-2.229,3.244,3.244,0,0,1,.826-2.361,2.97,2.97,0,0,1,2.232-.85,2.691,2.691,0,0,1,2.095.826,3.276,3.276,0,0,1,.753,2.291,3.223,3.223,0,0,1-.812,2.3A2.844,2.844,0,0,1,157.18,13.141Zm.07-5.473a1.828,1.828,0,0,0-1.465.63,2.587,2.587,0,0,0-.539,1.737,2.447,2.447,0,0,0,.545,1.682,1.852,1.852,0,0,0,1.459.615,1.757,1.757,0,0,0,1.433-.6,2.619,2.619,0,0,0,.5-1.717,2.664,2.664,0,0,0-.5-1.734A1.749,1.749,0,0,0,157.25,7.668ZM166.684,13h-.961V9.578q0-1.91-1.395-1.91a1.513,1.513,0,0,0-1.192.542,2.009,2.009,0,0,0-.472,1.368V13H161.7V7h.961V8h.023a2.166,2.166,0,0,1,1.969-1.137,1.836,1.836,0,0,1,1.506.636,2.832,2.832,0,0,1,.521,1.837Zm2.771,0h-.961V4.117h.961Zm6.721-6-2.76,6.961q-.738,1.863-2.074,1.863a2.2,2.2,0,0,1-.627-.076v-.861a1.781,1.781,0,0,0,.568.105,1.178,1.178,0,0,0,1.09-.867l.48-1.137L170.51,7h1.066l1.623,4.617q.029.088.123.457h.035q.029-.141.117-.445L175.18,7Zm11.877,0-1.8,6h-1l-1.236-4.295a2.8,2.8,0,0,1-.094-.557H183.9a2.628,2.628,0,0,1-.123.545L182.439,13h-.961l-1.816-6h1.008l1.242,4.512a2.718,2.718,0,0,1,.082.539h.047a2.521,2.521,0,0,1,.105-.551L183.529,7h.879l1.242,4.523a3.229,3.229,0,0,1,.088.539h.047a2.493,2.493,0,0,1,.1-.539L187.1,7Zm6.094,6h-.961V9.543q0-1.875-1.395-1.875a1.52,1.52,0,0,0-1.184.542,2.02,2.02,0,0,0-.48,1.392V13h-.961V4.117h.961V8h.023a2.182,2.182,0,0,1,1.969-1.137q2.027,0,2.027,2.443Zm6.633-2.76h-4.236a2.244,2.244,0,0,0,.539,1.547,1.858,1.858,0,0,0,1.418.545,2.948,2.948,0,0,0,1.863-.668v.9a3.482,3.482,0,0,1-2.092.574,2.536,2.536,0,0,1-2-.817,3.346,3.346,0,0,1-.727-2.3,3.281,3.281,0,0,1,.794-2.282,2.546,2.546,0,0,1,1.972-.882,2.256,2.256,0,0,1,1.822.762,3.176,3.176,0,0,1,.645,2.115Zm-.984-.814a1.955,1.955,0,0,0-.4-1.295,1.368,1.368,0,0,0-1.1-.463,1.552,1.552,0,0,0-1.154.486,2.207,2.207,0,0,0-.586,1.271ZM207.213,13h-.961V9.578q0-1.91-1.395-1.91a1.513,1.513,0,0,0-1.192.542,2.009,2.009,0,0,0-.472,1.368V13h-.961V7h.961V8h.023a2.166,2.166,0,0,1,1.969-1.137,1.836,1.836,0,0,1,1.506.636,2.832,2.832,0,0,1,.521,1.837Zm9.873-6-2.76,6.961q-.738,1.863-2.074,1.863a2.2,2.2,0,0,1-.627-.076v-.861a1.781,1.781,0,0,0,.568.105,1.178,1.178,0,0,0,1.09-.867l.48-1.137L211.42,7h1.066l1.623,4.617q.029.088.123.457h.035q.029-.141.117-.445L216.09,7Zm3.539,6.141A2.783,2.783,0,0,1,218.5,12.3a3.114,3.114,0,0,1-.794-2.229,3.244,3.244,0,0,1,.826-2.361,2.97,2.97,0,0,1,2.232-.85,2.691,2.691,0,0,1,2.095.826,3.276,3.276,0,0,1,.753,2.291,3.223,3.223,0,0,1-.812,2.3A2.844,2.844,0,0,1,220.625,13.141Zm.07-5.473a1.828,1.828,0,0,0-1.465.63,2.587,2.587,0,0,0-.539,1.737,2.447,2.447,0,0,0,.545,1.682,1.852,1.852,0,0,0,1.459.615,1.757,1.757,0,0,0,1.433-.6,2.619,2.619,0,0,0,.5-1.717,2.664,2.664,0,0,0-.5-1.734A1.749,1.749,0,0,0,220.7,7.668ZM230,13h-.961v-.949h-.023a1.973,1.973,0,0,1-1.852,1.09q-2.145,0-2.145-2.555V7h.955v3.434q0,1.9,1.453,1.9a1.47,1.47,0,0,0,1.157-.519,1.984,1.984,0,0,0,.454-1.356V7H230Zm6.211-.867h-.023V13h-.961V4.117h.961V8.055h.023a2.272,2.272,0,0,1,2.074-1.2,2.2,2.2,0,0,1,1.808.806,3.327,3.327,0,0,1,.653,2.159,3.719,3.719,0,0,1-.732,2.411,2.439,2.439,0,0,1-2,.905A1.974,1.974,0,0,1,236.211,12.133Zm-.023-2.42v.838a1.784,1.784,0,0,0,.483,1.263,1.725,1.725,0,0,0,2.6-.149,3.064,3.064,0,0,0,.5-1.857,2.419,2.419,0,0,0-.463-1.57,1.532,1.532,0,0,0-1.254-.568,1.7,1.7,0,0,0-1.348.583A2.141,2.141,0,0,0,236.188,9.713Zm10.916.527h-4.236a2.244,2.244,0,0,0,.539,1.547,1.858,1.858,0,0,0,1.418.545,2.948,2.948,0,0,0,1.863-.668v.9a3.482,3.482,0,0,1-2.092.574,2.536,2.536,0,0,1-2-.817,3.346,3.346,0,0,1-.727-2.3,3.281,3.281,0,0,1,.794-2.282,2.546,2.546,0,0,1,1.972-.882,2.256,2.256,0,0,1,1.822.762,3.176,3.176,0,0,1,.645,2.115Zm-.984-.814a1.955,1.955,0,0,0-.4-1.295,1.368,1.368,0,0,0-1.1-.463,1.552,1.552,0,0,0-1.154.486,2.207,2.207,0,0,0-.586,1.271Zm7.559,3.094q0,3.3-3.164,3.3a4.248,4.248,0,0,1-1.945-.422v-.961A4,4,0,0,0,250.5,15q2.215,0,2.215-2.355v-.656h-.023a2.428,2.428,0,0,1-3.864.349,3.2,3.2,0,0,1-.683-2.147,3.735,3.735,0,0,1,.735-2.432,2.457,2.457,0,0,1,2.013-.9,1.956,1.956,0,0,1,1.8.973h.023V7h.961Zm-.961-2.232V9.4a1.717,1.717,0,0,0-.483-1.225,1.591,1.591,0,0,0-1.2-.51,1.669,1.669,0,0,0-1.395.647,2.89,2.89,0,0,0-.5,1.813,2.481,2.481,0,0,0,.483,1.6,1.562,1.562,0,0,0,1.28.6,1.673,1.673,0,0,0,1.315-.574A2.14,2.14,0,0,0,252.717,10.287Zm3.4-4.811a.609.609,0,0,1-.439-.176.593.593,0,0,1-.182-.445.615.615,0,0,1,.621-.627.621.621,0,0,1,.448.179.626.626,0,0,1,0,.888A.615.615,0,0,1,256.115,5.477ZM256.584,13h-.961V7h.961Zm6.926,0h-.961V9.578q0-1.91-1.395-1.91a1.513,1.513,0,0,0-1.192.542,2.009,2.009,0,0,0-.472,1.368V13h-.961V7h.961V8h.023a2.166,2.166,0,0,1,1.969-1.137,1.836,1.836,0,0,1,1.506.636,2.832,2.832,0,0,1,.521,1.837ZM55.842,23l-2.76,6.961q-.738,1.863-2.074,1.863a2.2,2.2,0,0,1-.627-.076v-.861a1.781,1.781,0,0,0,.568.105,1.178,1.178,0,0,0,1.09-.867l.48-1.137L50.176,23h1.066l1.623,4.617q.029.088.123.457h.035q.029-.141.117-.445L54.846,23Zm3.539,6.141a2.783,2.783,0,0,1-2.124-.841,3.114,3.114,0,0,1-.794-2.229,3.244,3.244,0,0,1,.826-2.361,2.97,2.97,0,0,1,2.232-.85,2.691,2.691,0,0,1,2.095.826,3.276,3.276,0,0,1,.753,2.291,3.223,3.223,0,0,1-.812,2.3A2.844,2.844,0,0,1,59.381,29.141Zm.07-5.473a1.828,1.828,0,0,0-1.465.63,2.587,2.587,0,0,0-.539,1.737,2.447,2.447,0,0,0,.545,1.682,1.852,1.852,0,0,0,1.459.615,1.757,1.757,0,0,0,1.433-.6,2.619,2.619,0,0,0,.5-1.717,2.664,2.664,0,0,0-.5-1.734A1.749,1.749,0,0,0,59.451,23.668ZM68.756,29h-.961v-.949h-.023a1.973,1.973,0,0,1-1.852,1.09q-2.145,0-2.145-2.555V23h.955v3.434q0,1.9,1.453,1.9a1.47,1.47,0,0,0,1.157-.519,1.984,1.984,0,0,0,.454-1.356V23h.961Zm5.068-5.027a1.175,1.175,0,0,0-.727-.193,1.226,1.226,0,0,0-1.028.58,2.682,2.682,0,0,0-.413,1.582V29H70.7V23h.961v1.236h.023a2.1,2.1,0,0,1,.627-.987,1.43,1.43,0,0,1,.943-.354,1.569,1.569,0,0,1,.574.082Zm3.967,4.811V27.752a2.844,2.844,0,0,0,1.729.58q1.266,0,1.266-.844a.732.732,0,0,0-.108-.407,1.08,1.08,0,0,0-.293-.3,2.255,2.255,0,0,0-.434-.231q-.249-.1-.536-.214a6.9,6.9,0,0,1-.7-.319,2.115,2.115,0,0,1-.5-.363,1.352,1.352,0,0,1-.3-.46,1.627,1.627,0,0,1-.1-.6A1.434,1.434,0,0,1,78,23.847a1.715,1.715,0,0,1,.516-.545,2.4,2.4,0,0,1,.735-.331,3.262,3.262,0,0,1,.853-.111,3.442,3.442,0,0,1,1.395.27V24.1a2.718,2.718,0,0,0-1.523-.434,1.781,1.781,0,0,0-.486.062,1.191,1.191,0,0,0-.372.173.8.8,0,0,0-.24.267.7.7,0,0,0-.085.343.822.822,0,0,0,.085.393.864.864,0,0,0,.249.281,1.9,1.9,0,0,0,.4.223q.234.1.533.217a7.421,7.421,0,0,1,.715.313,2.452,2.452,0,0,1,.539.363,1.42,1.42,0,0,1,.343.466,1.5,1.5,0,0,1,.12.627,1.478,1.478,0,0,1-.2.773,1.682,1.682,0,0,1-.524.545,2.4,2.4,0,0,1-.756.322,3.732,3.732,0,0,1-.9.105A3.4,3.4,0,0,1,77.791,28.783ZM88.068,26.24H83.832a2.244,2.244,0,0,0,.539,1.547,1.858,1.858,0,0,0,1.418.545,2.948,2.948,0,0,0,1.863-.668v.9a3.482,3.482,0,0,1-2.092.574,2.536,2.536,0,0,1-2-.817,3.346,3.346,0,0,1-.727-2.3,3.281,3.281,0,0,1,.794-2.282,2.546,2.546,0,0,1,1.972-.882,2.256,2.256,0,0,1,1.822.762,3.176,3.176,0,0,1,.645,2.115Zm-.984-.814a1.955,1.955,0,0,0-.4-1.295,1.368,1.368,0,0,0-1.1-.463,1.552,1.552,0,0,0-1.154.486,2.207,2.207,0,0,0-.586,1.271Zm2.074,3.357V27.752a2.844,2.844,0,0,0,1.729.58q1.266,0,1.266-.844a.732.732,0,0,0-.108-.407,1.08,1.08,0,0,0-.293-.3,2.255,2.255,0,0,0-.434-.231q-.249-.1-.536-.214a6.9,6.9,0,0,1-.7-.319,2.115,2.115,0,0,1-.5-.363,1.352,1.352,0,0,1-.3-.46,1.627,1.627,0,0,1-.1-.6,1.434,1.434,0,0,1,.193-.747,1.715,1.715,0,0,1,.516-.545,2.4,2.4,0,0,1,.735-.331,3.262,3.262,0,0,1,.853-.111,3.442,3.442,0,0,1,1.395.27V24.1a2.718,2.718,0,0,0-1.523-.434,1.781,1.781,0,0,0-.486.062,1.191,1.191,0,0,0-.372.173.8.8,0,0,0-.24.267.7.7,0,0,0-.085.343.822.822,0,0,0,.085.393.864.864,0,0,0,.249.281,1.9,1.9,0,0,0,.4.223q.234.1.533.217a7.421,7.421,0,0,1,.715.313,2.452,2.452,0,0,1,.539.363,1.42,1.42,0,0,1,.343.466,1.5,1.5,0,0,1,.12.627,1.478,1.478,0,0,1-.2.773,1.682,1.682,0,0,1-.524.545,2.4,2.4,0,0,1-.756.322,3.732,3.732,0,0,1-.9.105A3.4,3.4,0,0,1,89.158,28.783Zm5.092,0V27.752a2.844,2.844,0,0,0,1.729.58q1.266,0,1.266-.844a.732.732,0,0,0-.108-.407,1.08,1.08,0,0,0-.293-.3,2.255,2.255,0,0,0-.434-.231q-.249-.1-.536-.214a6.9,6.9,0,0,1-.7-.319,2.115,2.115,0,0,1-.5-.363,1.352,1.352,0,0,1-.3-.46,1.627,1.627,0,0,1-.1-.6,1.434,1.434,0,0,1,.193-.747,1.715,1.715,0,0,1,.516-.545,2.4,2.4,0,0,1,.735-.331,3.262,3.262,0,0,1,.853-.111,3.442,3.442,0,0,1,1.395.27V24.1a2.718,2.718,0,0,0-1.523-.434,1.781,1.781,0,0,0-.486.062,1.191,1.191,0,0,0-.372.173.8.8,0,0,0-.24.267.7.7,0,0,0-.085.343.822.822,0,0,0,.085.393.864.864,0,0,0,.249.281,1.9,1.9,0,0,0,.4.223q.234.1.533.217a7.421,7.421,0,0,1,.715.313,2.452,2.452,0,0,1,.539.363,1.42,1.42,0,0,1,.343.466,1.5,1.5,0,0,1,.12.627,1.478,1.478,0,0,1-.2.773,1.682,1.682,0,0,1-.524.545,2.4,2.4,0,0,1-.756.322,3.732,3.732,0,0,1-.9.105A3.4,3.4,0,0,1,94.25,28.783Zm5.947-7.307a.609.609,0,0,1-.439-.176.593.593,0,0,1-.182-.445.615.615,0,0,1,.621-.627.621.621,0,0,1,.448.179.626.626,0,0,1,0,.888A.615.615,0,0,1,100.2,21.477ZM100.666,29h-.961V23h.961Zm4.453.141A2.783,2.783,0,0,1,103,28.3a3.114,3.114,0,0,1-.794-2.229,3.244,3.244,0,0,1,.826-2.361,2.97,2.97,0,0,1,2.232-.85,2.691,2.691,0,0,1,2.095.826,3.276,3.276,0,0,1,.753,2.291,3.223,3.223,0,0,1-.812,2.3A2.844,2.844,0,0,1,105.119,29.141Zm.07-5.473a1.828,1.828,0,0,0-1.465.63,2.587,2.587,0,0,0-.539,1.737,2.447,2.447,0,0,0,.545,1.682,1.852,1.852,0,0,0,1.459.615,1.757,1.757,0,0,0,1.433-.6,2.619,2.619,0,0,0,.5-1.717,2.664,2.664,0,0,0-.5-1.734A1.749,1.749,0,0,0,105.189,23.668ZM114.623,29h-.961V25.578q0-1.91-1.395-1.91a1.513,1.513,0,0,0-1.192.542,2.009,2.009,0,0,0-.472,1.368V29h-.961V23h.961v1h.023a2.166,2.166,0,0,1,1.969-1.137,1.836,1.836,0,0,1,1.506.636,2.832,2.832,0,0,1,.521,1.837Zm12.656-6-1.8,6h-1l-1.236-4.295a2.8,2.8,0,0,1-.094-.557h-.023a2.628,2.628,0,0,1-.123.545L121.666,29h-.961l-1.816-6H119.9l1.242,4.512a2.718,2.718,0,0,1,.082.539h.047a2.521,2.521,0,0,1,.105-.551l1.383-4.5h.879l1.242,4.523a3.229,3.229,0,0,1,.088.539h.047a2.493,2.493,0,0,1,.1-.539L126.33,23Zm1.605-1.523a.609.609,0,0,1-.439-.176.593.593,0,0,1-.182-.445.615.615,0,0,1,.621-.627.621.621,0,0,1,.448.179.626.626,0,0,1,0,.888A.615.615,0,0,1,128.885,21.477ZM129.354,29h-.961V23h.961Zm4.729-.059a1.853,1.853,0,0,1-.9.188q-1.576,0-1.576-1.758V23.82h-1.031V23h1.031V21.535l.961-.311V23h1.512v.82H132.57V27.2a1.4,1.4,0,0,0,.205.861.818.818,0,0,0,.68.258,1.01,1.01,0,0,0,.627-.2Zm6.264.059h-.961V25.543q0-1.875-1.395-1.875a1.52,1.52,0,0,0-1.184.542,2.02,2.02,0,0,0-.48,1.392V29h-.961V20.117h.961V24h.023a2.182,2.182,0,0,1,1.969-1.137q2.027,0,2.027,2.443Zm7.605.141a2.783,2.783,0,0,1-2.124-.841,3.114,3.114,0,0,1-.794-2.229,3.244,3.244,0,0,1,.826-2.361,2.97,2.97,0,0,1,2.232-.85,2.691,2.691,0,0,1,2.095.826,3.276,3.276,0,0,1,.753,2.291,3.223,3.223,0,0,1-.812,2.3A2.844,2.844,0,0,1,147.951,29.141Zm.07-5.473a1.828,1.828,0,0,0-1.465.63,2.587,2.587,0,0,0-.539,1.737,2.447,2.447,0,0,0,.545,1.682,1.852,1.852,0,0,0,1.459.615,1.757,1.757,0,0,0,1.433-.6,2.619,2.619,0,0,0,.5-1.717,2.664,2.664,0,0,0-.5-1.734A1.749,1.749,0,0,0,148.021,23.668Zm9.3,5.332h-.961v-.949h-.023a1.973,1.973,0,0,1-1.852,1.09q-2.145,0-2.145-2.555V23h.955v3.434q0,1.9,1.453,1.9a1.47,1.47,0,0,0,1.157-.519,1.984,1.984,0,0,0,.454-1.356V23h.961Zm5.068-5.027a1.175,1.175,0,0,0-.727-.193,1.226,1.226,0,0,0-1.028.58,2.682,2.682,0,0,0-.413,1.582V29h-.961V23h.961v1.236h.023a2.1,2.1,0,0,1,.627-.987,1.43,1.43,0,0,1,.943-.354,1.569,1.569,0,0,1,.574.082ZM173.357,29h-1.09l-.891-2.355h-3.562L166.977,29h-1.1l3.223-8.4h1.02Zm-2.3-3.24-1.318-3.58a3.428,3.428,0,0,1-.129-.562h-.023a3.138,3.138,0,0,1-.135.563l-1.307,3.58Zm3.047,3.023V27.752a2.844,2.844,0,0,0,1.729.58q1.266,0,1.266-.844a.732.732,0,0,0-.108-.407,1.08,1.08,0,0,0-.293-.3,2.255,2.255,0,0,0-.434-.231q-.249-.1-.536-.214a6.9,6.9,0,0,1-.7-.319,2.115,2.115,0,0,1-.5-.363,1.352,1.352,0,0,1-.3-.46,1.627,1.627,0,0,1-.1-.6,1.434,1.434,0,0,1,.193-.747,1.715,1.715,0,0,1,.516-.545,2.4,2.4,0,0,1,.735-.331,3.262,3.262,0,0,1,.853-.111,3.442,3.442,0,0,1,1.395.27V24.1a2.718,2.718,0,0,0-1.523-.434,1.781,1.781,0,0,0-.486.062,1.191,1.191,0,0,0-.372.173.8.8,0,0,0-.24.267.7.7,0,0,0-.085.343.822.822,0,0,0,.085.393.864.864,0,0,0,.249.281,1.9,1.9,0,0,0,.4.223q.234.1.533.217a7.421,7.421,0,0,1,.715.313,2.452,2.452,0,0,1,.539.363,1.42,1.42,0,0,1,.343.466,1.5,1.5,0,0,1,.12.627,1.478,1.478,0,0,1-.2.773,1.682,1.682,0,0,1-.524.545,2.4,2.4,0,0,1-.756.322,3.732,3.732,0,0,1-.9.105A3.4,3.4,0,0,1,174.1,28.783Zm8.238.158a1.853,1.853,0,0,1-.9.188q-1.576,0-1.576-1.758V23.82h-1.031V23h1.031V21.535l.961-.311V23h1.512v.82h-1.512V27.2a1.4,1.4,0,0,0,.205.861.818.818,0,0,0,.68.258,1.01,1.01,0,0,0,.627-.2Zm4.412-4.969a1.175,1.175,0,0,0-.727-.193,1.226,1.226,0,0,0-1.028.58,2.682,2.682,0,0,0-.413,1.582V29h-.961V23h.961v1.236h.023a2.1,2.1,0,0,1,.627-.987,1.43,1.43,0,0,1,.943-.354,1.569,1.569,0,0,1,.574.082Zm3.551,5.168a2.783,2.783,0,0,1-2.124-.841,3.114,3.114,0,0,1-.794-2.229,3.244,3.244,0,0,1,.826-2.361,2.97,2.97,0,0,1,2.232-.85,2.691,2.691,0,0,1,2.095.826,3.276,3.276,0,0,1,.753,2.291,3.223,3.223,0,0,1-.812,2.3A2.844,2.844,0,0,1,190.3,29.141Zm.07-5.473a1.828,1.828,0,0,0-1.465.63,2.587,2.587,0,0,0-.539,1.737,2.447,2.447,0,0,0,.545,1.682,1.852,1.852,0,0,0,1.459.615,1.757,1.757,0,0,0,1.433-.6,2.619,2.619,0,0,0,.5-1.717,2.664,2.664,0,0,0-.5-1.734A1.749,1.749,0,0,0,190.373,23.668ZM195.787,29h-.961V20.117h.961Zm4.453.141a2.783,2.783,0,0,1-2.124-.841,3.114,3.114,0,0,1-.794-2.229,3.244,3.244,0,0,1,.826-2.361,2.97,2.97,0,0,1,2.232-.85,2.691,2.691,0,0,1,2.095.826,3.276,3.276,0,0,1,.753,2.291,3.223,3.223,0,0,1-.812,2.3A2.844,2.844,0,0,1,200.24,29.141Zm.07-5.473a1.828,1.828,0,0,0-1.465.63,2.587,2.587,0,0,0-.539,1.737,2.447,2.447,0,0,0,.545,1.682,1.852,1.852,0,0,0,1.459.615,1.757,1.757,0,0,0,1.433-.6,2.619,2.619,0,0,0,.5-1.717,2.664,2.664,0,0,0-.5-1.734A1.749,1.749,0,0,0,200.311,23.668Zm9.574,4.852q0,3.3-3.164,3.3a4.248,4.248,0,0,1-1.945-.422v-.961a4,4,0,0,0,1.934.563q2.215,0,2.215-2.355v-.656H208.9a2.428,2.428,0,0,1-3.864.349,3.2,3.2,0,0,1-.683-2.147,3.735,3.735,0,0,1,.735-2.432,2.457,2.457,0,0,1,2.013-.9,1.956,1.956,0,0,1,1.8.973h.023V23h.961Zm-.961-2.232V25.4a1.717,1.717,0,0,0-.483-1.225,1.591,1.591,0,0,0-1.2-.51,1.669,1.669,0,0,0-1.395.647,2.89,2.89,0,0,0-.5,1.813,2.481,2.481,0,0,0,.483,1.6,1.562,1.562,0,0,0,1.28.6,1.673,1.673,0,0,0,1.315-.574A2.14,2.14,0,0,0,208.924,26.287Zm7.729-.047h-4.236a2.244,2.244,0,0,0,.539,1.547,1.858,1.858,0,0,0,1.418.545,2.948,2.948,0,0,0,1.863-.668v.9a3.482,3.482,0,0,1-2.092.574,2.536,2.536,0,0,1-2-.817,3.346,3.346,0,0,1-.727-2.3,3.281,3.281,0,0,1,.794-2.282,2.546,2.546,0,0,1,1.972-.882,2.256,2.256,0,0,1,1.822.762,3.176,3.176,0,0,1,.645,2.115Zm-.984-.814a1.955,1.955,0,0,0-.4-1.295,1.368,1.368,0,0,0-1.1-.463,1.552,1.552,0,0,0-1.154.486,2.207,2.207,0,0,0-.586,1.271Zm5.566-1.453a1.175,1.175,0,0,0-.727-.193,1.226,1.226,0,0,0-1.028.58,2.682,2.682,0,0,0-.413,1.582V29h-.961V23h.961v1.236h.023a2.1,2.1,0,0,1,.627-.987,1.43,1.43,0,0,1,.943-.354,1.569,1.569,0,0,1,.574.082Zm1.377,5.156a.622.622,0,0,1-.46-.193.636.636,0,0,1-.19-.463.646.646,0,0,1,.19-.466.617.617,0,0,1,.46-.2.634.634,0,0,1,.469.2.641.641,0,0,1,.193.466.632.632,0,0,1-.193.463A.638.638,0,0,1,222.611,29.129Z" transform="translate(48 399)" fill="#130708"/><g transform="translate(-412 -489)"><g transform="matrix(1, 0, 0, 1, 412, 489)" filter="url(#f)"><g transform="translate(30 250)" fill="#fff" stroke="#ffd4d8" stroke-width="1"><rect width="300" height="134" rx="8" stroke="none"/><rect x="0.5" y="0.5" width="299" height="133" rx="7.5" fill="none"/></g></g><g transform="translate(443 836)"><path d="M0,0H298a0,0,0,0,1,0,0V29a7,7,0,0,1-7,7H7a7,7,0,0,1-7-7V0A0,0,0,0,1,0,0Z" fill="#fff5f6"/><path d="M-128.775,0V-9.8h2.789a3.048,3.048,0,0,1,2.017.622,2.01,2.01,0,0,1,.745,1.62,2.384,2.384,0,0,1-.451,1.449,2.433,2.433,0,0,1-1.244.875v.027a2.494,2.494,0,0,1,1.586.749,2.3,2.3,0,0,1,.595,1.644,2.563,2.563,0,0,1-.9,2.037A3.358,3.358,0,0,1-125.918,0Zm1.148-8.764V-5.6h1.176a2.233,2.233,0,0,0,1.483-.455,1.583,1.583,0,0,0,.54-1.282q0-1.429-1.88-1.429Zm0,4.2v3.527h1.559a2.335,2.335,0,0,0,1.569-.479,1.639,1.639,0,0,0,.557-1.312q0-1.736-2.365-1.736ZM-115.89,0h-1.121V-1.094h-.027A2.347,2.347,0,0,1-119.191.164a2.3,2.3,0,0,1-1.637-.554,1.918,1.918,0,0,1-.591-1.47q0-1.962,2.311-2.283l2.1-.294q0-1.784-1.442-1.784a3.446,3.446,0,0,0-2.283.861V-6.508a4.338,4.338,0,0,1,2.379-.656q2.468,0,2.468,2.611Zm-1.121-3.541-1.688.232a2.741,2.741,0,0,0-1.176.386,1.114,1.114,0,0,0-.4.981,1.068,1.068,0,0,0,.366.837,1.413,1.413,0,0,0,.974.325,1.8,1.8,0,0,0,1.377-.584,2.088,2.088,0,0,0,.543-1.48ZM-112.656,0h-1.121V-10.363h1.121Zm7.28,0H-106.5V-1.094h-.027A2.347,2.347,0,0,1-108.678.164a2.3,2.3,0,0,1-1.637-.554,1.918,1.918,0,0,1-.591-1.47q0-1.962,2.311-2.283l2.1-.294q0-1.784-1.442-1.784a3.446,3.446,0,0,0-2.283.861V-6.508a4.338,4.338,0,0,1,2.379-.656q2.468,0,2.468,2.611ZM-106.5-3.541l-1.688.232a2.741,2.741,0,0,0-1.176.386,1.114,1.114,0,0,0-.4.981,1.068,1.068,0,0,0,.366.837,1.413,1.413,0,0,0,.974.325,1.8,1.8,0,0,0,1.377-.584,2.088,2.088,0,0,0,.543-1.48ZM-97.453,0h-1.121V-3.992q0-2.229-1.627-2.229a1.765,1.765,0,0,0-1.391.632,2.344,2.344,0,0,0-.55,1.6V0h-1.121V-7h1.121v1.162h.027a2.526,2.526,0,0,1,2.3-1.326,2.142,2.142,0,0,1,1.757.742,3.3,3.3,0,0,1,.608,2.143Zm6.884-.321a3.643,3.643,0,0,1-1.914.485A3.169,3.169,0,0,1-94.9-.81a3.53,3.53,0,0,1-.919-2.526,3.881,3.881,0,0,1,.991-2.779,3.467,3.467,0,0,1,2.646-1.049,3.682,3.682,0,0,1,1.627.342v1.148a2.85,2.85,0,0,0-1.668-.547,2.254,2.254,0,0,0-1.76.769,2.918,2.918,0,0,0-.687,2.02,2.779,2.779,0,0,0,.646,1.941,2.227,2.227,0,0,0,1.733.711,2.81,2.81,0,0,0,1.723-.608Zm7.321-2.9H-88.19a2.618,2.618,0,0,0,.629,1.8,2.168,2.168,0,0,0,1.654.636,3.439,3.439,0,0,0,2.174-.779V-.506a4.063,4.063,0,0,1-2.44.67A2.959,2.959,0,0,1-88.5-.79a3.9,3.9,0,0,1-.848-2.683,3.828,3.828,0,0,1,.926-2.663,2.97,2.97,0,0,1,2.3-1.029A2.632,2.632,0,0,1-84-6.275a3.705,3.705,0,0,1,.752,2.468ZM-84.4-4.17a2.281,2.281,0,0,0-.468-1.511,1.6,1.6,0,0,0-1.282-.54,1.811,1.811,0,0,0-1.347.567,2.575,2.575,0,0,0-.684,1.483Zm7.253-4.607a.71.71,0,0,1-.513-.205.692.692,0,0,1-.212-.52.7.7,0,0,1,.212-.523.7.7,0,0,1,.513-.208.724.724,0,0,1,.523.208.7.7,0,0,1,.215.523.693.693,0,0,1-.215.513A.718.718,0,0,1-77.144-8.777ZM-76.6,0h-1.121V-7H-76.6Zm8.08,0h-1.121V-3.992q0-2.229-1.627-2.229a1.765,1.765,0,0,0-1.391.632,2.344,2.344,0,0,0-.55,1.6V0h-1.121V-7h1.121v1.162h.027a2.526,2.526,0,0,1,2.3-1.326,2.142,2.142,0,0,1,1.757.742,3.3,3.3,0,0,1,.608,2.143ZM-57-7l-3.22,8.121q-.861,2.174-2.42,2.174a2.565,2.565,0,0,1-.731-.089v-1a2.078,2.078,0,0,0,.663.123,1.374,1.374,0,0,0,1.271-1.012l.561-1.326L-63.608-7h1.244l1.894,5.387q.034.1.144.533h.041q.034-.164.137-.52L-58.16-7ZM-52.869.164a3.247,3.247,0,0,1-2.478-.981,3.634,3.634,0,0,1-.926-2.6,3.785,3.785,0,0,1,.964-2.755,3.465,3.465,0,0,1,2.6-.991,3.14,3.14,0,0,1,2.444.964,3.822,3.822,0,0,1,.878,2.673A3.761,3.761,0,0,1-50.33-.844,3.317,3.317,0,0,1-52.869.164Zm.082-6.385a2.132,2.132,0,0,0-1.709.735,3.018,3.018,0,0,0-.629,2.027A2.854,2.854,0,0,0-54.489-1.5a2.161,2.161,0,0,0,1.7.718,2.049,2.049,0,0,0,1.671-.7,3.055,3.055,0,0,0,.584-2,3.108,3.108,0,0,0-.584-2.023A2.04,2.04,0,0,0-52.787-6.221ZM-41.932,0h-1.121V-1.107h-.027A2.3,2.3,0,0,1-45.24.164q-2.5,0-2.5-2.98V-7h1.114v4.006q0,2.215,1.7,2.215a1.715,1.715,0,0,0,1.35-.6,2.315,2.315,0,0,0,.53-1.583V-7h1.121Zm5.913-5.865a1.371,1.371,0,0,0-.848-.226,1.431,1.431,0,0,0-1.2.677,3.129,3.129,0,0,0-.482,1.846V0h-1.121V-7h1.121v1.442h.027a2.444,2.444,0,0,1,.731-1.152,1.668,1.668,0,0,1,1.1-.414,1.83,1.83,0,0,1,.67.1ZM-22.148-7l-2.1,7h-1.162l-1.442-5.011a3.265,3.265,0,0,1-.109-.649h-.027a3.066,3.066,0,0,1-.144.636L-28.7,0h-1.121l-2.119-7h1.176l1.449,5.264a3.171,3.171,0,0,1,.1.629h.055a2.942,2.942,0,0,1,.123-.643L-27.426-7H-26.4l1.449,5.277a3.768,3.768,0,0,1,.1.629h.055a2.909,2.909,0,0,1,.116-.629L-23.256-7Zm6.31,7H-16.96V-1.094h-.027A2.347,2.347,0,0,1-19.141.164,2.3,2.3,0,0,1-20.778-.39a1.918,1.918,0,0,1-.591-1.47q0-1.962,2.311-2.283l2.1-.294q0-1.784-1.442-1.784a3.446,3.446,0,0,0-2.283.861V-6.508a4.338,4.338,0,0,1,2.379-.656q2.468,0,2.468,2.611ZM-16.96-3.541l-1.688.232a2.741,2.741,0,0,0-1.176.386,1.114,1.114,0,0,0-.4.981,1.068,1.068,0,0,0,.366.837,1.413,1.413,0,0,0,.974.325A1.8,1.8,0,0,0-17.5-1.364a2.088,2.088,0,0,0,.543-1.48ZM-12.605,0h-1.121V-10.363h1.121Zm3.391,0h-1.121V-10.363h1.121Zm7.9-3.22H-6.262a2.618,2.618,0,0,0,.629,1.8,2.168,2.168,0,0,0,1.654.636A3.439,3.439,0,0,0-1.8-1.559V-.506a4.063,4.063,0,0,1-2.44.67A2.959,2.959,0,0,1-6.576-.79a3.9,3.9,0,0,1-.848-2.683A3.828,3.828,0,0,1-6.5-6.135,2.97,2.97,0,0,1-4.2-7.164a2.632,2.632,0,0,1,2.126.889,3.705,3.705,0,0,1,.752,2.468Zm-1.148-.95a2.281,2.281,0,0,0-.468-1.511,1.6,1.6,0,0,0-1.282-.54,1.811,1.811,0,0,0-1.347.567A2.575,2.575,0,0,0-6.248-4.17Zm6.091,4.1A2.161,2.161,0,0,1,2.577.15Q.738.15.738-1.9V-6.043h-1.2V-7h1.2V-8.709l1.121-.362V-7H3.623v.957H1.859V-2.1a1.635,1.635,0,0,0,.239,1,.955.955,0,0,0,.793.3,1.179,1.179,0,0,0,.731-.232ZM13.966,0H12.845V-1.094h-.027A2.347,2.347,0,0,1,10.664.164,2.3,2.3,0,0,1,9.027-.39a1.918,1.918,0,0,1-.591-1.47q0-1.962,2.311-2.283l2.1-.294q0-1.784-1.442-1.784a3.446,3.446,0,0,0-2.283.861V-6.508A4.338,4.338,0,0,1,11.5-7.164q2.468,0,2.468,2.611ZM12.845-3.541l-1.688.232a2.741,2.741,0,0,0-1.176.386,1.114,1.114,0,0,0-.4.981A1.068,1.068,0,0,0,9.95-1.1a1.413,1.413,0,0,0,.974.325A1.8,1.8,0,0,0,12.3-1.364a2.088,2.088,0,0,0,.543-1.48Zm6.692-5.838a1.493,1.493,0,0,0-.745-.185q-1.176,0-1.176,1.483V-7h1.641v.957H17.616V0H16.5V-6.043h-1.2V-7h1.2V-8.135a2.358,2.358,0,0,1,.636-1.74,2.146,2.146,0,0,1,1.586-.639,2.2,2.2,0,0,1,.813.123Zm4.17,9.311A2.161,2.161,0,0,1,22.661.15Q20.822.15,20.822-1.9V-6.043h-1.2V-7h1.2V-8.709l1.121-.362V-7h1.764v.957H21.943V-2.1a1.635,1.635,0,0,0,.239,1,.955.955,0,0,0,.793.3,1.179,1.179,0,0,0,.731-.232ZM30.83-3.22H25.888a2.618,2.618,0,0,0,.629,1.8,2.168,2.168,0,0,0,1.654.636,3.439,3.439,0,0,0,2.174-.779V-.506a4.063,4.063,0,0,1-2.44.67A2.959,2.959,0,0,1,25.573-.79a3.9,3.9,0,0,1-.848-2.683,3.828,3.828,0,0,1,.926-2.663,2.97,2.97,0,0,1,2.3-1.029,2.632,2.632,0,0,1,2.126.889,3.705,3.705,0,0,1,.752,2.468Zm-1.148-.95a2.281,2.281,0,0,0-.468-1.511,1.6,1.6,0,0,0-1.282-.54,1.811,1.811,0,0,0-1.347.567A2.575,2.575,0,0,0,25.9-4.17Zm6.494-1.7a1.371,1.371,0,0,0-.848-.226,1.431,1.431,0,0,0-1.2.677,3.129,3.129,0,0,0-.482,1.846V0H32.525V-7h1.121v1.442h.027a2.444,2.444,0,0,1,.731-1.152,1.668,1.668,0,0,1,1.1-.414,1.83,1.83,0,0,1,.67.1Zm8.7,0a1.371,1.371,0,0,0-.848-.226,1.431,1.431,0,0,0-1.2.677,3.129,3.129,0,0,0-.482,1.846V0H41.228V-7h1.121v1.442h.027a2.444,2.444,0,0,1,.731-1.152,1.668,1.668,0,0,1,1.1-.414,1.83,1.83,0,0,1,.67.1ZM51.721-3.22H46.778a2.618,2.618,0,0,0,.629,1.8,2.168,2.168,0,0,0,1.654.636,3.439,3.439,0,0,0,2.174-.779V-.506a4.063,4.063,0,0,1-2.44.67A2.959,2.959,0,0,1,46.464-.79a3.9,3.9,0,0,1-.848-2.683,3.828,3.828,0,0,1,.926-2.663,2.97,2.97,0,0,1,2.3-1.029,2.632,2.632,0,0,1,2.126.889,3.705,3.705,0,0,1,.752,2.468Zm-1.148-.95A2.281,2.281,0,0,0,50.1-5.681a1.6,1.6,0,0,0-1.282-.54,1.811,1.811,0,0,0-1.347.567,2.575,2.575,0,0,0-.684,1.483ZM58.188-.321a3.643,3.643,0,0,1-1.914.485A3.169,3.169,0,0,1,53.857-.81a3.53,3.53,0,0,1-.919-2.526,3.881,3.881,0,0,1,.991-2.779,3.468,3.468,0,0,1,2.646-1.049,3.682,3.682,0,0,1,1.627.342v1.148a2.85,2.85,0,0,0-1.668-.547,2.254,2.254,0,0,0-1.76.769,2.918,2.918,0,0,0-.687,2.02,2.779,2.779,0,0,0,.646,1.941,2.227,2.227,0,0,0,1.733.711,2.81,2.81,0,0,0,1.723-.608ZM65.693,0H64.572V-4.033q0-2.188-1.627-2.187a1.774,1.774,0,0,0-1.381.632A2.356,2.356,0,0,0,61-3.965V0H59.883V-10.363H61v4.525h.027a2.546,2.546,0,0,1,2.3-1.326q2.365,0,2.365,2.851Zm7.123,0H71.7V-1.094h-.027A2.347,2.347,0,0,1,69.515.164,2.3,2.3,0,0,1,67.877-.39a1.918,1.918,0,0,1-.591-1.47q0-1.962,2.311-2.283l2.1-.294q0-1.784-1.442-1.784a3.446,3.446,0,0,0-2.283.861V-6.508a4.338,4.338,0,0,1,2.379-.656q2.468,0,2.468,2.611ZM71.7-3.541l-1.688.232a2.741,2.741,0,0,0-1.176.386,1.114,1.114,0,0,0-.4.981A1.068,1.068,0,0,0,68.8-1.1a1.413,1.413,0,0,0,.974.325,1.8,1.8,0,0,0,1.377-.584,2.088,2.088,0,0,0,.543-1.48Zm6.884-2.324a1.371,1.371,0,0,0-.848-.226,1.431,1.431,0,0,0-1.2.677,3.129,3.129,0,0,0-.482,1.846V0H74.929V-7H76.05v1.442h.027a2.444,2.444,0,0,1,.731-1.152,1.668,1.668,0,0,1,1.1-.414,1.83,1.83,0,0,1,.67.1Zm7.191,5.3q0,3.855-3.691,3.855A4.956,4.956,0,0,1,79.81,2.8V1.682a4.661,4.661,0,0,0,2.256.656q2.584,0,2.584-2.748v-.766h-.027A2.622,2.622,0,0,1,82.216.164a2.628,2.628,0,0,1-2.1-.933,3.73,3.73,0,0,1-.8-2.505,4.358,4.358,0,0,1,.858-2.837,2.866,2.866,0,0,1,2.348-1.053,2.282,2.282,0,0,1,2.1,1.135h.027V-7h1.121Zm-1.121-2.6V-4.2a2,2,0,0,0-.564-1.429,1.857,1.857,0,0,0-1.4-.595,1.947,1.947,0,0,0-1.627.755,3.372,3.372,0,0,0-.588,2.116,2.894,2.894,0,0,0,.564,1.87,1.822,1.822,0,0,0,1.494.7,1.951,1.951,0,0,0,1.535-.67A2.5,2.5,0,0,0,84.649-3.165Zm9.017-.055H88.724a2.618,2.618,0,0,0,.629,1.8,2.168,2.168,0,0,0,1.654.636,3.439,3.439,0,0,0,2.174-.779V-.506a4.063,4.063,0,0,1-2.44.67A2.959,2.959,0,0,1,88.409-.79a3.9,3.9,0,0,1-.848-2.683,3.828,3.828,0,0,1,.926-2.663,2.97,2.97,0,0,1,2.3-1.029,2.632,2.632,0,0,1,2.126.889,3.705,3.705,0,0,1,.752,2.468Zm-1.148-.95a2.281,2.281,0,0,0-.468-1.511,1.6,1.6,0,0,0-1.282-.54,1.811,1.811,0,0,0-1.347.567,2.575,2.575,0,0,0-.684,1.483Zm3.233-1.463a.726.726,0,0,1-.537-.226.743.743,0,0,1-.222-.54.72.72,0,0,1,.222-.533.737.737,0,0,1,.537-.219.757.757,0,0,1,.547.219.715.715,0,0,1,.226.533.737.737,0,0,1-.226.54A.745.745,0,0,1,95.751-5.633Zm0,5.783a.726.726,0,0,1-.537-.226.742.742,0,0,1-.222-.54.754.754,0,0,1,.222-.543.72.72,0,0,1,.537-.229.739.739,0,0,1,.547.229.748.748,0,0,1,.226.543.737.737,0,0,1-.226.54A.745.745,0,0,1,95.751.15Zm6.255-7.711h3.213a1.489,1.489,0,0,0-.181-.461,1.1,1.1,0,0,0-.355-.355,1.8,1.8,0,0,0-.567-.226,3.588,3.588,0,0,0-.8-.079H102l.007-1.121h6.378v1.121h-2.051a1.9,1.9,0,0,1,.325.5,2.117,2.117,0,0,1,.167.622h1.565v1.114h-1.6a2.426,2.426,0,0,1-.728,1.292,3.031,3.031,0,0,1-1.453.738v.027a2.672,2.672,0,0,1,.431.253,2.878,2.878,0,0,1,.383.335,4.312,4.312,0,0,1,.366.438q.181.246.386.554L108.021,0H106.2l-1.559-2.522q-.226-.369-.427-.646a2.408,2.408,0,0,0-.431-.461,1.613,1.613,0,0,0-.506-.277A2.045,2.045,0,0,0,102.635-4h-.629V-5.188h1.3a2.343,2.343,0,0,0,.663-.092,2.03,2.03,0,0,0,.564-.26,1.761,1.761,0,0,0,.424-.4,1.455,1.455,0,0,0,.25-.509h-3.2Zm11.081-2.461V0H111.5V-8.08a5.052,5.052,0,0,1-.926.523,7.635,7.635,0,0,1-1.131.379V-8.531q.4-.13.766-.273t.728-.321q.359-.178.725-.4t.755-.5ZM118.3.164a2.737,2.737,0,0,1-2.389-1.251,6.375,6.375,0,0,1-.858-3.616,7.074,7.074,0,0,1,.9-3.931,2.923,2.923,0,0,1,2.584-1.333q3.233,0,3.233,5.024a6.614,6.614,0,0,1-.913,3.8A2.937,2.937,0,0,1,118.3.164Zm.157-8.866q-1.784,0-1.784,3.931,0,3.678,1.75,3.678,1.723,0,1.723-3.739Q120.142-8.7,118.453-8.7ZM126.068.164a2.737,2.737,0,0,1-2.389-1.251,6.375,6.375,0,0,1-.858-3.616,7.074,7.074,0,0,1,.9-3.931A2.923,2.923,0,0,1,126.3-9.967q3.233,0,3.233,5.024a6.614,6.614,0,0,1-.913,3.8A2.937,2.937,0,0,1,126.068.164Zm.157-8.866q-1.784,0-1.784,3.931,0,3.678,1.75,3.678,1.723,0,1.723-3.739Q127.914-8.7,126.226-8.7Z" transform="translate(149 24)"/></g><line x2="278.604" transform="translate(453.5 806.647)" fill="none" stroke="#f9c5ca" stroke-width="1" opacity="0.3"/><line x2="278.604" transform="translate(453.5 775.647)" fill="none" stroke="#f9c5ca" stroke-width="1" opacity="0.3"/><path d="M2.434,11.295V15H1.285V5.2H3.979a3.555,3.555,0,0,1,2.437.766,2.734,2.734,0,0,1,.865,2.16,2.971,2.971,0,0,1-.96,2.283,3.67,3.67,0,0,1-2.594.889Zm0-5.059v4.02h1.2a2.69,2.69,0,0,0,1.815-.543,1.924,1.924,0,0,0,.625-1.535q0-1.941-2.3-1.941ZM10.1,15H8.976V4.637H10.1Zm7.28,0H16.256V13.906h-.027a2.347,2.347,0,0,1-2.153,1.258,2.3,2.3,0,0,1-1.637-.554,1.918,1.918,0,0,1-.591-1.47q0-1.962,2.311-2.283l2.1-.294q0-1.784-1.442-1.784a3.446,3.446,0,0,0-2.283.861V8.492a4.338,4.338,0,0,1,2.379-.656q2.468,0,2.468,2.611Zm-1.121-3.541-1.688.232a2.741,2.741,0,0,0-1.176.386,1.114,1.114,0,0,0-.4.981,1.068,1.068,0,0,0,.366.837,1.413,1.413,0,0,0,.974.325,1.8,1.8,0,0,0,1.377-.584,2.088,2.088,0,0,0,.543-1.48ZM25.3,15H24.179V11.008q0-2.229-1.627-2.229a1.765,1.765,0,0,0-1.391.632,2.344,2.344,0,0,0-.55,1.6V15H19.489V8H20.61V9.162h.027a2.526,2.526,0,0,1,2.3-1.326,2.142,2.142,0,0,1,1.757.742,3.3,3.3,0,0,1,.608,2.143ZM38.685,5.2,35.055,15H33.79L30.235,5.2h1.278l2.714,7.772a4.615,4.615,0,0,1,.2.868h.027a4.258,4.258,0,0,1,.226-.882L37.447,5.2ZM43.928,15H42.807V13.906h-.027a2.347,2.347,0,0,1-2.153,1.258,2.3,2.3,0,0,1-1.637-.554,1.918,1.918,0,0,1-.591-1.47q0-1.962,2.311-2.283l2.1-.294q0-1.784-1.442-1.784a3.446,3.446,0,0,0-2.283.861V8.492a4.338,4.338,0,0,1,2.379-.656q2.468,0,2.468,2.611Zm-1.121-3.541-1.688.232a2.741,2.741,0,0,0-1.176.386,1.114,1.114,0,0,0-.4.981,1.068,1.068,0,0,0,.366.837,1.413,1.413,0,0,0,.974.325,1.8,1.8,0,0,0,1.377-.584,2.088,2.088,0,0,0,.543-1.48ZM47.161,15H46.04V4.637h1.121Zm7.93,0H53.97V13.893h-.027a2.3,2.3,0,0,1-2.16,1.271q-2.5,0-2.5-2.98V8h1.114v4.006q0,2.215,1.7,2.215a1.715,1.715,0,0,0,1.35-.6,2.315,2.315,0,0,0,.53-1.583V8h1.121Zm7.889-3.22H58.037a2.618,2.618,0,0,0,.629,1.8,2.168,2.168,0,0,0,1.654.636,3.439,3.439,0,0,0,2.174-.779v1.053a4.063,4.063,0,0,1-2.44.67,2.959,2.959,0,0,1-2.331-.954,3.9,3.9,0,0,1-.848-2.683A3.828,3.828,0,0,1,57.8,8.865a2.97,2.97,0,0,1,2.3-1.029,2.632,2.632,0,0,1,2.126.889,3.705,3.705,0,0,1,.752,2.468Zm-1.148-.95a2.281,2.281,0,0,0-.468-1.511,1.6,1.6,0,0,0-1.282-.54,1.811,1.811,0,0,0-1.347.567,2.575,2.575,0,0,0-.684,1.483ZM4.949,44H3.828V35.53a2.6,2.6,0,0,1-.379.3,6.185,6.185,0,0,1-.561.332q-.311.164-.656.308a4.769,4.769,0,0,1-.673.226V35.558a6.517,6.517,0,0,0,.783-.277q.414-.174.813-.39t.755-.451a6,6,0,0,0,.615-.461h.424Zm3.213-2.734a2.608,2.608,0,0,1,.123-.783,2.835,2.835,0,0,1,.352-.735,2.913,2.913,0,0,1,.567-.622,2.705,2.705,0,0,1,.769-.444,2.906,2.906,0,0,1-1.012-.913,2.158,2.158,0,0,1-.376-1.234,2.379,2.379,0,0,1,.786-1.791,2.67,2.67,0,0,1,.875-.523,3.268,3.268,0,0,1,2.194,0,2.717,2.717,0,0,1,.875.526,2.363,2.363,0,0,1,.574.793,2.4,2.4,0,0,1,.205.991,2.158,2.158,0,0,1-.376,1.234,2.943,2.943,0,0,1-1,.913,2.681,2.681,0,0,1,.759.444,2.956,2.956,0,0,1,.564.622,2.835,2.835,0,0,1,.352.735,2.608,2.608,0,0,1,.123.783,2.911,2.911,0,0,1-.232,1.176,2.627,2.627,0,0,1-.653.913,3.014,3.014,0,0,1-1,.591,3.756,3.756,0,0,1-1.289.212,3.706,3.706,0,0,1-1.278-.212,3.06,3.06,0,0,1-1-.591,2.645,2.645,0,0,1-.66-.913A2.875,2.875,0,0,1,8.162,41.266Zm1.217-.1a2.316,2.316,0,0,0,.14.827,1.783,1.783,0,0,0,.4.629,1.731,1.731,0,0,0,.622.4,2.247,2.247,0,0,0,.81.14,2.134,2.134,0,0,0,.793-.144,1.848,1.848,0,0,0,.625-.4,1.813,1.813,0,0,0,.41-.629,2.2,2.2,0,0,0,.147-.82,2.1,2.1,0,0,0-.14-.769,1.925,1.925,0,0,0-.4-.632,1.879,1.879,0,0,0-.622-.431,2.024,2.024,0,0,0-.813-.157,2.046,2.046,0,0,0-.783.147,1.873,1.873,0,0,0-.622.41,1.9,1.9,0,0,0-.414.629A2.092,2.092,0,0,0,9.379,41.17Zm.349-4.546a1.627,1.627,0,0,0,.991,1.514,1.615,1.615,0,0,0,1.261,0,1.634,1.634,0,0,0,.516-.352,1.706,1.706,0,0,0,.349-.52,1.579,1.579,0,0,0,.13-.639,1.676,1.676,0,0,0-.126-.656,1.611,1.611,0,0,0-1.5-.991,1.631,1.631,0,0,0-.66.13,1.594,1.594,0,0,0-.513.352,1.539,1.539,0,0,0-.332.523A1.767,1.767,0,0,0,9.728,36.624Zm8.128,2.488a2.066,2.066,0,0,1-1.613-.667,2.557,2.557,0,0,1-.6-1.781,2.747,2.747,0,0,1,.636-1.917,2.2,2.2,0,0,1,1.716-.7,2.06,2.06,0,0,1,1.624.649,2.654,2.654,0,0,1,.578,1.825,2.685,2.685,0,0,1-.646,1.883A2.183,2.183,0,0,1,17.855,39.112Zm.1-4.313a1.23,1.23,0,0,0-1.025.482A2.1,2.1,0,0,0,16.55,36.6a2.013,2.013,0,0,0,.369,1.289,1.218,1.218,0,0,0,1,.461,1.19,1.19,0,0,0,1-.479,2.153,2.153,0,0,0,.362-1.326,2.054,2.054,0,0,0-.359-1.289A1.175,1.175,0,0,0,17.951,34.8Zm6.467-.6-6.289,9.871h-.978L23.434,34.2Zm-.725,9.953a2.061,2.061,0,0,1-1.613-.67,2.56,2.56,0,0,1-.6-1.777,2.754,2.754,0,0,1,.643-1.924,2.2,2.2,0,0,1,1.709-.708,2.051,2.051,0,0,1,1.62.656,3.121,3.121,0,0,1-.065,3.715A2.183,2.183,0,0,1,23.693,44.15Zm.1-4.307a1.232,1.232,0,0,0-1.029.479,2.11,2.11,0,0,0-.373,1.326,1.989,1.989,0,0,0,.369,1.275,1.218,1.218,0,0,0,1,.461,1.187,1.187,0,0,0,1-.482,2.156,2.156,0,0,0,.362-1.323,2.021,2.021,0,0,0-.359-1.285A1.186,1.186,0,0,0,23.789,39.844ZM39,43.33a6.555,6.555,0,0,1-3.281.834,4.484,4.484,0,0,1-3.394-1.354,4.964,4.964,0,0,1-1.3-3.582,5.1,5.1,0,0,1,1.439-3.736,4.905,4.905,0,0,1,3.647-1.459,6.206,6.206,0,0,1,2.687.52v1.271a5.159,5.159,0,0,0-2.816-.752,3.519,3.519,0,0,0-2.7,1.135,4.15,4.15,0,0,0-1.053,2.939,4.153,4.153,0,0,0,.978,2.922,3.426,3.426,0,0,0,2.652,1.063,4.1,4.1,0,0,0,1.989-.458V39.926H35.7V38.887H39Zm1.818.273V42.25a2.629,2.629,0,0,0,.557.369,4.514,4.514,0,0,0,.684.277,5.442,5.442,0,0,0,.721.174,4.021,4.021,0,0,0,.67.062,2.624,2.624,0,0,0,1.583-.393,1.474,1.474,0,0,0,.349-1.822,1.964,1.964,0,0,0-.482-.537,4.782,4.782,0,0,0-.728-.465q-.42-.222-.906-.468-.513-.26-.957-.526a4.147,4.147,0,0,1-.772-.588,2.452,2.452,0,0,1-.516-.728,2.482,2.482,0,0,1,.106-2.119,2.521,2.521,0,0,1,.772-.817,3.5,3.5,0,0,1,1.09-.479,4.993,4.993,0,0,1,1.248-.157,4.781,4.781,0,0,1,2.112.349v1.292a3.829,3.829,0,0,0-2.229-.6,3.665,3.665,0,0,0-.752.079,2.124,2.124,0,0,0-.67.256,1.484,1.484,0,0,0-.479.458,1.216,1.216,0,0,0-.185.684,1.407,1.407,0,0,0,.14.649,1.592,1.592,0,0,0,.414.5,4.119,4.119,0,0,0,.667.438q.393.212.906.465t1,.547a4.562,4.562,0,0,1,.827.636,2.825,2.825,0,0,1,.564.772,2.171,2.171,0,0,1,.208.971,2.462,2.462,0,0,1-.284,1.227,2.328,2.328,0,0,1-.766.817,3.344,3.344,0,0,1-1.111.455,6.084,6.084,0,0,1-1.326.14,5.4,5.4,0,0,1-.574-.038q-.342-.038-.7-.109a5.69,5.69,0,0,1-.673-.178A2.1,2.1,0,0,1,40.817,43.6ZM54.51,35.236H51.68V44H50.531V35.236H47.708V34.2h6.8Zm8.162,10.992h-1a8.736,8.736,0,0,1-2.119-5.968A9.067,9.067,0,0,1,61.674,34.2h1.012a9.213,9.213,0,0,0-2.146,6.05A9.052,9.052,0,0,0,62.672,46.229ZM68.968,44H67.847V42.906h-.027a2.347,2.347,0,0,1-2.153,1.258,2.3,2.3,0,0,1-1.637-.554,1.918,1.918,0,0,1-.591-1.47q0-1.962,2.311-2.283l2.1-.294q0-1.784-1.442-1.784a3.446,3.446,0,0,0-2.283.861V37.492a4.338,4.338,0,0,1,2.379-.656q2.468,0,2.468,2.611Zm-1.121-3.541-1.688.232a2.741,2.741,0,0,0-1.176.386,1.114,1.114,0,0,0-.4.981,1.068,1.068,0,0,0,.366.837,1.413,1.413,0,0,0,.974.325,1.8,1.8,0,0,0,1.377-.584,2.088,2.088,0,0,0,.543-1.48Zm4.382,2.529H72.2V47.22H71.08V37H72.2v1.23h.027a2.651,2.651,0,0,1,2.42-1.395,2.563,2.563,0,0,1,2.112.94,3.893,3.893,0,0,1,.759,2.519,4.339,4.339,0,0,1-.854,2.813,2.845,2.845,0,0,1-2.338,1.056A2.342,2.342,0,0,1,72.229,42.988ZM72.2,40.165v.978a2.081,2.081,0,0,0,.564,1.473,2.012,2.012,0,0,0,3.028-.174,3.575,3.575,0,0,0,.578-2.167,2.822,2.822,0,0,0-.54-1.832,1.787,1.787,0,0,0-1.463-.663,1.986,1.986,0,0,0-1.572.68A2.5,2.5,0,0,0,72.2,40.165Zm8.258,2.823h-.027V47.22H79.311V37h1.121v1.23h.027a2.651,2.651,0,0,1,2.42-1.395,2.563,2.563,0,0,1,2.112.94,3.893,3.893,0,0,1,.759,2.519,4.339,4.339,0,0,1-.854,2.813,2.845,2.845,0,0,1-2.338,1.056A2.342,2.342,0,0,1,80.459,42.988Zm-.027-2.823v.978A2.081,2.081,0,0,0,81,42.616a2.012,2.012,0,0,0,3.028-.174,3.575,3.575,0,0,0,.578-2.167,2.822,2.822,0,0,0-.54-1.832,1.787,1.787,0,0,0-1.463-.663,1.986,1.986,0,0,0-1.572.68A2.5,2.5,0,0,0,80.432,40.165ZM88.662,44H87.541V33.637h1.121Zm2.844-8.777a.71.71,0,0,1-.513-.205.692.692,0,0,1-.212-.52.718.718,0,0,1,.725-.731.724.724,0,0,1,.523.208.73.73,0,0,1,0,1.036A.718.718,0,0,1,91.506,35.223ZM92.053,44H90.932V37h1.121Zm7.041-.321a3.643,3.643,0,0,1-1.914.485,3.169,3.169,0,0,1-2.417-.974,3.53,3.53,0,0,1-.919-2.526,3.881,3.881,0,0,1,.991-2.779,3.467,3.467,0,0,1,2.646-1.049,3.682,3.682,0,0,1,1.627.342v1.148a2.85,2.85,0,0,0-1.668-.547,2.254,2.254,0,0,0-1.76.769,2.918,2.918,0,0,0-.687,2.02,2.779,2.779,0,0,0,.646,1.941,2.227,2.227,0,0,0,1.733.711,2.81,2.81,0,0,0,1.723-.608ZM105.8,44h-1.121V42.906h-.027a2.347,2.347,0,0,1-2.153,1.258,2.3,2.3,0,0,1-1.637-.554,1.918,1.918,0,0,1-.591-1.47q0-1.962,2.311-2.283l2.1-.294q0-1.784-1.442-1.784a3.446,3.446,0,0,0-2.283.861V37.492a4.338,4.338,0,0,1,2.379-.656q2.468,0,2.468,2.611Zm-1.121-3.541-1.688.232a2.741,2.741,0,0,0-1.176.386,1.114,1.114,0,0,0-.4.981,1.068,1.068,0,0,0,.366.837,1.413,1.413,0,0,0,.974.325,1.8,1.8,0,0,0,1.377-.584,2.088,2.088,0,0,0,.543-1.48Zm4.382,2.529h-.027V44h-1.121V33.637h1.121V38.23h.027a2.651,2.651,0,0,1,2.42-1.395,2.566,2.566,0,0,1,2.109.94,3.881,3.881,0,0,1,.762,2.519,4.339,4.339,0,0,1-.854,2.813,2.845,2.845,0,0,1-2.338,1.056A2.3,2.3,0,0,1,109.061,42.988Zm-.027-2.823v.978a2.081,2.081,0,0,0,.564,1.473,2.012,2.012,0,0,0,3.028-.174,3.575,3.575,0,0,0,.578-2.167,2.822,2.822,0,0,0-.54-1.832,1.787,1.787,0,0,0-1.463-.663,1.986,1.986,0,0,0-1.572.68A2.5,2.5,0,0,0,109.033,40.165ZM117.264,44h-1.121V33.637h1.121Zm7.9-3.22h-4.942a2.618,2.618,0,0,0,.629,1.8,2.168,2.168,0,0,0,1.654.636,3.439,3.439,0,0,0,2.174-.779v1.053a4.063,4.063,0,0,1-2.44.67,2.959,2.959,0,0,1-2.331-.954,3.9,3.9,0,0,1-.848-2.683,3.828,3.828,0,0,1,.926-2.663,2.97,2.97,0,0,1,2.3-1.029,2.632,2.632,0,0,1,2.126.889,3.705,3.705,0,0,1,.752,2.468Zm-1.148-.95a2.281,2.281,0,0,0-.468-1.511,1.6,1.6,0,0,0-1.282-.54,1.811,1.811,0,0,0-1.347.567,2.575,2.575,0,0,0-.684,1.483Zm2.871,6.4h-1a9.052,9.052,0,0,0,2.133-5.981,9.213,9.213,0,0,0-2.146-6.05h1.012a9.031,9.031,0,0,1,2.133,6.063A8.7,8.7,0,0,1,126.882,46.229ZM8,65h-2.8v8H2.994V65H.212V63.2H8Zm3.186,8.176a3.763,3.763,0,0,1-2.751-.981,4.057,4.057,0,0,1,.038-5.38,3.926,3.926,0,0,1,2.81-.981,3.718,3.718,0,0,1,2.734.981,3.487,3.487,0,0,1,.991,2.594,3.7,3.7,0,0,1-1.022,2.755A3.8,3.8,0,0,1,11.19,73.171Zm.055-5.687a1.441,1.441,0,0,0-1.189.526,2.321,2.321,0,0,0-.424,1.49q0,2.017,1.627,2.017,1.552,0,1.552-2.071Q12.811,67.483,11.245,67.483Zm9.4,5.435a3.193,3.193,0,0,1-1.442.253q-2.283,0-2.283-2.372V67.593H15.784V66h1.135V64.489l2.153-.615V66h1.572v1.593H19.072v2.83q0,1.094.868,1.094a1.464,1.464,0,0,0,.7-.2ZM27.686,73H25.642V72h-.027a2.281,2.281,0,0,1-2.085,1.176,2.181,2.181,0,0,1-1.6-.578,2.07,2.07,0,0,1-.584-1.542q0-2.037,2.413-2.352l1.9-.253q0-1.148-1.244-1.148a4.247,4.247,0,0,0-2.379.745V66.417a5.352,5.352,0,0,1,1.234-.41,6.486,6.486,0,0,1,1.425-.178,2.643,2.643,0,0,1,2.994,2.987Zm-2.03-2.844v-.472l-1.271.164q-1.053.137-1.053.95a.785.785,0,0,0,.256.6.985.985,0,0,0,.694.236,1.279,1.279,0,0,0,.991-.42A1.518,1.518,0,0,0,25.655,70.156ZM31.555,73h-2.16V62.637h2.16Z" transform="translate(454 752)" fill="#212121"/><path d="M1.524,9.367a.726.726,0,0,1-.537-.226A.742.742,0,0,1,.766,8.6a.72.72,0,0,1,.222-.533.737.737,0,0,1,.537-.219.757.757,0,0,1,.547.219A.715.715,0,0,1,2.3,8.6a.737.737,0,0,1-.226.54A.745.745,0,0,1,1.524,9.367Zm0,5.783a.726.726,0,0,1-.537-.226.742.742,0,0,1-.222-.54.754.754,0,0,1,.222-.543.72.72,0,0,1,.537-.229.739.739,0,0,1,.547.229.748.748,0,0,1,.226.543.737.737,0,0,1-.226.54A.745.745,0,0,1,1.524,15.15Zm0,23.217a.726.726,0,0,1-.537-.226.742.742,0,0,1-.222-.54.72.72,0,0,1,.222-.533.737.737,0,0,1,.537-.219.757.757,0,0,1,.547.219A.715.715,0,0,1,2.3,37.6a.737.737,0,0,1-.226.54A.745.745,0,0,1,1.524,38.367Zm0,5.783a.726.726,0,0,1-.537-.226.742.742,0,0,1-.222-.54.754.754,0,0,1,.222-.543.72.72,0,0,1,.537-.229.739.739,0,0,1,.547.229.748.748,0,0,1,.226.543.737.737,0,0,1-.226.54A.745.745,0,0,1,1.524,44.15Zm.349,24.017a1.268,1.268,0,0,1-.889-.325,1.044,1.044,0,0,1-.355-.8,1.016,1.016,0,0,1,.366-.807,1.35,1.35,0,0,1,.913-.314,1.3,1.3,0,0,1,.906.318,1.1,1.1,0,0,1-.007,1.617A1.364,1.364,0,0,1,1.873,68.167Zm0,5a1.26,1.26,0,0,1-.889-.328,1.055,1.055,0,0,1-.355-.807,1.016,1.016,0,0,1,.366-.807,1.35,1.35,0,0,1,.913-.314,1.3,1.3,0,0,1,.906.318,1.1,1.1,0,0,1-.007,1.62A1.355,1.355,0,0,1,1.873,73.171Z" transform="translate(611 752)" fill="#212121"/><path d="M.9,7.433H4.211A1.82,1.82,0,0,0,4.03,6.91a1.2,1.2,0,0,0-.355-.4,1.719,1.719,0,0,0-.567-.26,3.078,3.078,0,0,0-.8-.092H.9V5.2H7.068v.957H4.826a2.293,2.293,0,0,1,.325.571,2.661,2.661,0,0,1,.167.708h1.75V8.39H5.284a2.712,2.712,0,0,1-.673,1.4,2.745,2.745,0,0,1-1.343.8v.027a2.424,2.424,0,0,1,.424.253,2.922,2.922,0,0,1,.369.332,3.978,3.978,0,0,1,.352.434q.174.246.373.561L6.528,15h-1.3L3.671,12.389q-.226-.376-.427-.663a2.463,2.463,0,0,0-.431-.479,1.6,1.6,0,0,0-.506-.287,1.978,1.978,0,0,0-.646-.1H.9V9.928H2.3a1.949,1.949,0,0,0,.663-.113A1.922,1.922,0,0,0,3.524,9.5a1.891,1.891,0,0,0,.424-.485A2.01,2.01,0,0,0,4.2,8.39H.9Zm17.459,2.625a9.63,9.63,0,0,1-.222,2.181,5.081,5.081,0,0,1-.643,1.6,2.892,2.892,0,0,1-1.032.991,2.826,2.826,0,0,1-1.391.338,2.639,2.639,0,0,1-1.316-.325,2.758,2.758,0,0,1-.974-.947,4.8,4.8,0,0,1-.6-1.528A9.447,9.447,0,0,1,11.97,10.3a10.694,10.694,0,0,1,.215-2.27,5.191,5.191,0,0,1,.632-1.651,2.814,2.814,0,0,1,1.036-1,2.908,2.908,0,0,1,1.418-.338Q18.354,5.033,18.354,10.058Zm-1.148.109q0-4.184-1.989-4.184-2.1,0-2.1,4.259,0,3.972,2.058,3.972Q17.206,14.214,17.206,10.167Zm3.247,4.983a.726.726,0,0,1-.537-.226.742.742,0,0,1-.222-.54.754.754,0,0,1,.222-.543.72.72,0,0,1,.537-.229.739.739,0,0,1,.547.229.748.748,0,0,1,.226.543.737.737,0,0,1-.226.54A.745.745,0,0,1,20.453,15.15Zm2.126-2.885a2.608,2.608,0,0,1,.123-.783,2.835,2.835,0,0,1,.352-.735,2.913,2.913,0,0,1,.567-.622,2.7,2.7,0,0,1,.769-.444,2.906,2.906,0,0,1-1.012-.913A2.158,2.158,0,0,1,23,7.535a2.379,2.379,0,0,1,.786-1.791,2.67,2.67,0,0,1,.875-.523,3.268,3.268,0,0,1,2.194,0,2.717,2.717,0,0,1,.875.526,2.363,2.363,0,0,1,.574.793,2.4,2.4,0,0,1,.205.991,2.158,2.158,0,0,1-.376,1.234,2.943,2.943,0,0,1-1,.913,2.681,2.681,0,0,1,.759.444,2.956,2.956,0,0,1,.564.622,2.835,2.835,0,0,1,.352.735,2.608,2.608,0,0,1,.123.783,2.911,2.911,0,0,1-.232,1.176,2.627,2.627,0,0,1-.653.913,3.014,3.014,0,0,1-1,.591,3.756,3.756,0,0,1-1.289.212,3.706,3.706,0,0,1-1.278-.212,3.06,3.06,0,0,1-1-.591,2.645,2.645,0,0,1-.66-.913A2.875,2.875,0,0,1,22.579,12.266Zm1.217-.1a2.316,2.316,0,0,0,.14.827,1.783,1.783,0,0,0,.4.629,1.731,1.731,0,0,0,.622.4,2.247,2.247,0,0,0,.81.14,2.134,2.134,0,0,0,.793-.144,1.848,1.848,0,0,0,.625-.4,1.813,1.813,0,0,0,.41-.629,2.2,2.2,0,0,0,.147-.82,2.1,2.1,0,0,0-.14-.769,1.925,1.925,0,0,0-.4-.632,1.879,1.879,0,0,0-.622-.431,2.024,2.024,0,0,0-.813-.157,2.046,2.046,0,0,0-.783.147,1.873,1.873,0,0,0-.622.41,1.9,1.9,0,0,0-.414.629A2.092,2.092,0,0,0,23.8,12.17Zm.349-4.546a1.627,1.627,0,0,0,.991,1.514,1.615,1.615,0,0,0,1.261,0,1.634,1.634,0,0,0,.516-.352,1.706,1.706,0,0,0,.349-.52,1.579,1.579,0,0,0,.13-.639,1.676,1.676,0,0,0-.126-.656,1.611,1.611,0,0,0-1.5-.991,1.631,1.631,0,0,0-.66.13,1.594,1.594,0,0,0-.513.352,1.539,1.539,0,0,0-.332.523A1.767,1.767,0,0,0,24.145,7.624Zm11.99,4.382a3.3,3.3,0,0,1-.246,1.3,2.84,2.84,0,0,1-.7,1,3.137,3.137,0,0,1-1.1.643,4.291,4.291,0,0,1-1.429.226,3.947,3.947,0,0,1-2.03-.41V13.571a3.733,3.733,0,0,0,2.044.643,2.766,2.766,0,0,0,.96-.157,2.134,2.134,0,0,0,.728-.437,1.873,1.873,0,0,0,.461-.677,2.291,2.291,0,0,0,.161-.868,1.86,1.86,0,0,0-.643-1.5,2.818,2.818,0,0,0-1.866-.543q-.2,0-.417.007t-.437.017q-.219.01-.427.024t-.379.034L31.151,5.2h4.532V6.209H32.122l-.2,2.878q.219-.014.465-.024t.438-.01a4.4,4.4,0,0,1,1.395.205,2.955,2.955,0,0,1,1.042.584,2.451,2.451,0,0,1,.649.93A3.27,3.27,0,0,1,36.135,12.006ZM.9,36.433H4.211a1.82,1.82,0,0,0-.181-.523,1.2,1.2,0,0,0-.355-.4,1.719,1.719,0,0,0-.567-.26,3.078,3.078,0,0,0-.8-.092H.9V34.2H7.068v.957H4.826a2.293,2.293,0,0,1,.325.571,2.661,2.661,0,0,1,.167.708h1.75v.957H5.284a2.712,2.712,0,0,1-.673,1.4,2.745,2.745,0,0,1-1.343.8v.027a2.424,2.424,0,0,1,.424.253,2.922,2.922,0,0,1,.369.332,3.978,3.978,0,0,1,.352.434q.174.246.373.561L6.528,44h-1.3L3.671,41.389q-.226-.376-.427-.663a2.463,2.463,0,0,0-.431-.479,1.6,1.6,0,0,0-.506-.287,1.978,1.978,0,0,0-.646-.1H.9v-.937H2.3a1.949,1.949,0,0,0,.663-.113,1.922,1.922,0,0,0,.564-.314,1.891,1.891,0,0,0,.424-.485,2.01,2.01,0,0,0,.25-.625H.9Zm17.459,2.625a9.63,9.63,0,0,1-.222,2.181,5.081,5.081,0,0,1-.643,1.6,2.892,2.892,0,0,1-1.032.991,2.826,2.826,0,0,1-1.391.338,2.639,2.639,0,0,1-1.316-.325,2.758,2.758,0,0,1-.974-.947,4.8,4.8,0,0,1-.6-1.528A9.447,9.447,0,0,1,11.97,39.3a10.694,10.694,0,0,1,.215-2.27,5.191,5.191,0,0,1,.632-1.651,2.814,2.814,0,0,1,1.036-1,2.908,2.908,0,0,1,1.418-.338Q18.354,34.033,18.354,39.058Zm-1.148.109q0-4.184-1.989-4.184-2.1,0-2.1,4.259,0,3.972,2.058,3.972Q17.206,43.214,17.206,39.167Zm3.247,4.983a.726.726,0,0,1-.537-.226.742.742,0,0,1-.222-.54.754.754,0,0,1,.222-.543.72.72,0,0,1,.537-.229.739.739,0,0,1,.547.229.748.748,0,0,1,.226.543.737.737,0,0,1-.226.54A.745.745,0,0,1,20.453,44.15Zm6.46-.15H25.792V35.53a2.6,2.6,0,0,1-.379.3,6.185,6.185,0,0,1-.561.332q-.311.164-.656.308a4.769,4.769,0,0,1-.673.226V35.558a6.517,6.517,0,0,0,.783-.277q.414-.174.813-.39t.755-.451a6,6,0,0,0,.615-.461h.424Zm9.222-2.994a3.3,3.3,0,0,1-.246,1.3,2.84,2.84,0,0,1-.7,1,3.137,3.137,0,0,1-1.1.643,4.291,4.291,0,0,1-1.429.226,3.947,3.947,0,0,1-2.03-.41V42.571a3.733,3.733,0,0,0,2.044.643,2.766,2.766,0,0,0,.96-.157,2.134,2.134,0,0,0,.728-.437,1.873,1.873,0,0,0,.461-.677,2.291,2.291,0,0,0,.161-.868,1.86,1.86,0,0,0-.643-1.5,2.818,2.818,0,0,0-1.866-.543q-.2,0-.417.007t-.437.017q-.219.01-.427.024t-.379.034l.335-4.915h4.532v1.012H32.122l-.2,2.878q.219-.014.465-.024t.438-.01a4.4,4.4,0,0,1,1.395.205,2.955,2.955,0,0,1,1.042.584,2.451,2.451,0,0,1,.649.93A3.27,3.27,0,0,1,36.135,41.006ZM.9,65.439h3.11a1.164,1.164,0,0,0-.181-.4,1.047,1.047,0,0,0-.355-.3,1.99,1.99,0,0,0-.567-.195,4.109,4.109,0,0,0-.8-.068H.889L.9,63.2H7.479v1.278H5.626a1.7,1.7,0,0,1,.325.431,1.606,1.606,0,0,1,.167.533H7.5v1.278H6.077a2.014,2.014,0,0,1-.28.643,2.35,2.35,0,0,1-.5.543,3.176,3.176,0,0,1-.7.417,3.914,3.914,0,0,1-.865.263v.027a2.567,2.567,0,0,1,.448.253,2.925,2.925,0,0,1,.39.335,4.338,4.338,0,0,1,.373.438q.185.246.4.554L7.3,73H4.956L3.4,70.56q-.226-.355-.427-.622a2.357,2.357,0,0,0-.431-.444,1.691,1.691,0,0,0-.506-.27,2.045,2.045,0,0,0-.646-.092H.9V67.688h1.2a2.972,2.972,0,0,0,.663-.072,2.349,2.349,0,0,0,.564-.2,1.663,1.663,0,0,0,.424-.308,1.062,1.062,0,0,0,.25-.39H.9ZM13.74,62.979V73H11.587V65.412a2.578,2.578,0,0,1-.42.3,4.341,4.341,0,0,1-.516.253,4.608,4.608,0,0,1-.567.191,4.145,4.145,0,0,1-.581.113V64.448a9.131,9.131,0,0,0,2.933-1.47Z" transform="translate(694 752)" fill="#212121"/></g><path d="M-101.332,0h-1.453l-1.187-3.141h-4.75L-109.84,0H-111.3l4.3-11.2h1.359Zm-3.07-4.32-1.758-4.773a4.571,4.571,0,0,1-.172-.75h-.031a4.185,4.185,0,0,1-.18.75l-1.742,4.773ZM-93.879-8l-3.187,8h-1.258l-3.031-8h1.406l2.031,5.813a5.217,5.217,0,0,1,.281,1.117h.031a5.283,5.283,0,0,1,.25-1.086L-95.23-8Zm7.1,8h-1.281V-1.25h-.031A2.682,2.682,0,0,1-90.551.188a2.63,2.63,0,0,1-1.871-.633,2.192,2.192,0,0,1-.676-1.68q0-2.242,2.641-2.609l2.4-.336q0-2.039-1.648-2.039a3.938,3.938,0,0,0-2.609.984V-7.437a4.958,4.958,0,0,1,2.719-.75q2.82,0,2.82,2.984Zm-1.281-4.047-1.93.266a3.133,3.133,0,0,0-1.344.441,1.273,1.273,0,0,0-.453,1.121,1.221,1.221,0,0,0,.418.957,1.615,1.615,0,0,0,1.113.371,2.056,2.056,0,0,0,1.574-.668,2.387,2.387,0,0,0,.621-1.691Zm4.352-5.984a.812.812,0,0,1-.586-.234.791.791,0,0,1-.242-.594.8.8,0,0,1,.242-.6.8.8,0,0,1,.586-.238.827.827,0,0,1,.6.238.8.8,0,0,1,.246.6.792.792,0,0,1-.246.586A.82.82,0,0,1-83.707-10.031ZM-83.082,0h-1.281V-8h1.281Zm3.875,0h-1.281V-11.844h1.281Zm16.18,0h-1.609L-70.4-8.93a3.731,3.731,0,0,1-.359-.7h-.047a11.534,11.534,0,0,1,.063,1.539V0h-1.312V-11.2h1.7l5.609,8.789q.352.547.453.75h.031a11.853,11.853,0,0,1-.078-1.648V-11.2h1.313Zm6.109.188A3.711,3.711,0,0,1-59.75-.934a4.153,4.153,0,0,1-1.059-2.973,4.326,4.326,0,0,1,1.1-3.148A3.96,3.96,0,0,1-56.73-8.187a3.588,3.588,0,0,1,2.793,1.1,4.368,4.368,0,0,1,1,3.055A4.3,4.3,0,0,1-54.016-.965,3.791,3.791,0,0,1-56.918.188Zm.094-7.3a2.437,2.437,0,0,0-1.953.84A3.449,3.449,0,0,0-59.5-3.953a3.262,3.262,0,0,0,.727,2.242,2.469,2.469,0,0,0,1.945.82,2.342,2.342,0,0,0,1.91-.8,3.492,3.492,0,0,0,.668-2.289A3.552,3.552,0,0,0-54.914-6.3,2.332,2.332,0,0,0-56.824-7.109ZM-40.809-8l-2.4,8h-1.328l-1.648-5.727a3.732,3.732,0,0,1-.125-.742h-.031a3.5,3.5,0,0,1-.164.727L-48.293,0h-1.281L-52-8h1.344L-49-1.984a3.624,3.624,0,0,1,.109.719h.063A3.362,3.362,0,0,1-48.684-2l1.844-6h1.172l1.656,6.031a4.306,4.306,0,0,1,.117.719h.063a3.325,3.325,0,0,1,.133-.719L-42.074-8Zm11.594,8H-30.5V-1.25h-.031A2.682,2.682,0,0,1-32.988.188a2.63,2.63,0,0,1-1.871-.633,2.192,2.192,0,0,1-.676-1.68q0-2.242,2.641-2.609l2.4-.336q0-2.039-1.648-2.039a3.938,3.938,0,0,0-2.609.984V-7.437a4.958,4.958,0,0,1,2.719-.75q2.82,0,2.82,2.984ZM-30.5-4.047l-1.93.266a3.133,3.133,0,0,0-1.344.441,1.273,1.273,0,0,0-.453,1.121,1.221,1.221,0,0,0,.418.957,1.615,1.615,0,0,0,1.113.371,2.056,2.056,0,0,0,1.574-.668A2.387,2.387,0,0,0-30.5-3.25ZM-20.16,0h-1.281V-4.562q0-2.547-1.859-2.547a2.017,2.017,0,0,0-1.59.723,2.679,2.679,0,0,0-.629,1.824V0H-26.8V-8h1.281v1.328h.031a2.887,2.887,0,0,1,2.625-1.516,2.448,2.448,0,0,1,2.008.848,3.776,3.776,0,0,1,.7,2.449Zm9.242,0H-12.2V-1.359h-.031A2.958,2.958,0,0,1-14.98.188a2.988,2.988,0,0,1-2.41-1.074,4.407,4.407,0,0,1-.9-2.926,4.794,4.794,0,0,1,1-3.18,3.3,3.3,0,0,1,2.664-1.2,2.564,2.564,0,0,1,2.4,1.3h.031v-4.953h1.281ZM-12.2-3.617V-4.8a2.289,2.289,0,0,0-.641-1.641,2.149,2.149,0,0,0-1.625-.672,2.212,2.212,0,0,0-1.844.859,3.766,3.766,0,0,0-.672,2.375,3.387,3.387,0,0,0,.645,2.184,2.107,2.107,0,0,0,1.73.8,2.188,2.188,0,0,0,1.738-.773A2.882,2.882,0,0,0-12.2-3.617Zm15.055-6.4H-.379V0H-1.691V-10.016H-4.918V-11.2H2.855ZM8.371,0H7.09V-1.25H7.059A2.682,2.682,0,0,1,4.6.188,2.63,2.63,0,0,1,2.727-.445a2.192,2.192,0,0,1-.676-1.68q0-2.242,2.641-2.609l2.4-.336q0-2.039-1.648-2.039a3.938,3.938,0,0,0-2.609.984V-7.437a4.958,4.958,0,0,1,2.719-.75q2.82,0,2.82,2.984ZM7.09-4.047l-1.93.266a3.133,3.133,0,0,0-1.344.441,1.273,1.273,0,0,0-.453,1.121,1.221,1.221,0,0,0,.418.957,1.615,1.615,0,0,0,1.113.371,2.056,2.056,0,0,0,1.574-.668A2.387,2.387,0,0,0,7.09-3.25ZM12.066,0H10.785V-11.844h1.281ZM21.3,0H19.5L15.973-3.844h-.031V0H14.66V-11.844h1.281v7.508h.031L19.332-8h1.68L17.3-4.141ZM33.793-10.016H30.559V0H29.246V-10.016H26.02V-11.2h7.773ZM37.16.188A3.711,3.711,0,0,1,34.328-.934,4.153,4.153,0,0,1,33.27-3.906a4.326,4.326,0,0,1,1.1-3.148,3.96,3.96,0,0,1,2.977-1.133,3.588,3.588,0,0,1,2.793,1.1,4.368,4.368,0,0,1,1,3.055A4.3,4.3,0,0,1,40.063-.965,3.791,3.791,0,0,1,37.16.188Zm.094-7.3a2.437,2.437,0,0,0-1.953.84,3.449,3.449,0,0,0-.719,2.316,3.262,3.262,0,0,0,.727,2.242,2.469,2.469,0,0,0,1.945.82,2.342,2.342,0,0,0,1.91-.8,3.492,3.492,0,0,0,.668-2.289A3.552,3.552,0,0,0,39.164-6.3,2.332,2.332,0,0,0,37.254-7.109ZM52.262.188a4.918,4.918,0,0,1-3.816-1.57,5.824,5.824,0,0,1-1.434-4.086,6.171,6.171,0,0,1,1.461-4.312,5.1,5.1,0,0,1,3.977-1.609,4.807,4.807,0,0,1,3.738,1.563,5.845,5.845,0,0,1,1.418,4.086,6.191,6.191,0,0,1-1.453,4.336A5.008,5.008,0,0,1,52.262.188ZM52.355-10.2A3.612,3.612,0,0,0,49.488-8.93a4.93,4.93,0,0,0-1.1,3.344,4.964,4.964,0,0,0,1.074,3.332,3.5,3.5,0,0,0,2.8,1.262,3.678,3.678,0,0,0,2.906-1.2A4.917,4.917,0,0,0,56.23-5.562,5.138,5.138,0,0,0,55.2-8.992,3.536,3.536,0,0,0,52.355-10.2ZM66.105,0H64.824V-1.266h-.031A2.631,2.631,0,0,1,62.324.188q-2.859,0-2.859-3.406V-8h1.273v4.578q0,2.531,1.938,2.531a1.96,1.96,0,0,0,1.543-.691,2.645,2.645,0,0,0,.605-1.809V-8h1.281Zm6.758-6.7a1.567,1.567,0,0,0-.969-.258,1.635,1.635,0,0,0-1.371.773,3.576,3.576,0,0,0-.551,2.109V0H68.691V-8h1.281v1.648H70a2.793,2.793,0,0,1,.836-1.316A1.906,1.906,0,0,1,72.1-8.141a2.092,2.092,0,0,1,.766.109ZM78.809,0V-11.2H82a3.484,3.484,0,0,1,2.3.711,2.3,2.3,0,0,1,.852,1.852,2.724,2.724,0,0,1-.516,1.656,2.781,2.781,0,0,1-1.422,1v.031a2.85,2.85,0,0,1,1.813.855,2.631,2.631,0,0,1,.68,1.879A2.929,2.929,0,0,1,84.676-.891a3.838,3.838,0,0,1-2.6.891Zm1.313-10.016V-6.4h1.344a2.552,2.552,0,0,0,1.7-.52,1.809,1.809,0,0,0,.617-1.465q0-1.633-2.148-1.633Zm0,4.8v4.031H81.9A2.669,2.669,0,0,0,83.7-1.734a1.873,1.873,0,0,0,.637-1.5q0-1.984-2.7-1.984ZM94.238-3.68H88.59a2.992,2.992,0,0,0,.719,2.063A2.478,2.478,0,0,0,91.2-.891a3.931,3.931,0,0,0,2.484-.891v1.2a4.643,4.643,0,0,1-2.789.766A3.381,3.381,0,0,1,88.23-.9a4.461,4.461,0,0,1-.969-3.066A4.375,4.375,0,0,1,88.32-7.012a3.394,3.394,0,0,1,2.629-1.176,3.008,3.008,0,0,1,2.43,1.016,4.234,4.234,0,0,1,.859,2.82ZM92.926-4.766a2.607,2.607,0,0,0-.535-1.727,1.823,1.823,0,0,0-1.465-.617,2.07,2.07,0,0,0-1.539.648,2.943,2.943,0,0,0-.781,1.7ZM95.691-.289V-1.664A3.792,3.792,0,0,0,98-.891q1.688,0,1.688-1.125a.976.976,0,0,0-.145-.543,1.44,1.44,0,0,0-.391-.395,3.007,3.007,0,0,0-.578-.309q-.332-.137-.715-.285a9.207,9.207,0,0,1-.934-.426,2.82,2.82,0,0,1-.672-.484,1.8,1.8,0,0,1-.406-.613,2.17,2.17,0,0,1-.137-.8,1.912,1.912,0,0,1,.258-1,2.286,2.286,0,0,1,.688-.727,3.206,3.206,0,0,1,.98-.441,4.349,4.349,0,0,1,1.137-.148,4.59,4.59,0,0,1,1.859.359v1.3A3.624,3.624,0,0,0,98.6-7.109a2.374,2.374,0,0,0-.648.082,1.587,1.587,0,0,0-.5.23,1.065,1.065,0,0,0-.32.355.936.936,0,0,0-.113.457,1.1,1.1,0,0,0,.113.523,1.152,1.152,0,0,0,.332.375,2.538,2.538,0,0,0,.531.3q.313.133.711.289a9.9,9.9,0,0,1,.953.418,3.269,3.269,0,0,1,.719.484,1.893,1.893,0,0,1,.457.621,2,2,0,0,1,.16.836,1.971,1.971,0,0,1-.262,1.031,2.243,2.243,0,0,1-.7.727,3.2,3.2,0,0,1-1.008.43,4.976,4.976,0,0,1-1.2.141A4.539,4.539,0,0,1,95.691-.289Zm10.984.211a2.47,2.47,0,0,1-1.2.25q-2.1,0-2.1-2.344V-6.906H102V-8h1.375V-9.953l1.281-.414V-8h2.016v1.094H104.66V-2.4a1.869,1.869,0,0,0,.273,1.148,1.091,1.091,0,0,0,.906.344,1.347,1.347,0,0,0,.836-.266ZM-53.707,21H-55.16l-1.187-3.141H-61.1L-62.215,21h-1.461l4.3-11.2h1.359Zm-3.07-4.32-1.758-4.773a4.571,4.571,0,0,1-.172-.75h-.031a4.185,4.185,0,0,1-.18.75L-60.66,16.68Zm4.063,4.031V19.336a3.792,3.792,0,0,0,2.3.773q1.688,0,1.688-1.125a.976.976,0,0,0-.145-.543,1.44,1.44,0,0,0-.391-.395,3.007,3.007,0,0,0-.578-.309q-.332-.137-.715-.285a9.207,9.207,0,0,1-.934-.426,2.82,2.82,0,0,1-.672-.484,1.8,1.8,0,0,1-.406-.613,2.17,2.17,0,0,1-.137-.8,1.912,1.912,0,0,1,.258-1,2.286,2.286,0,0,1,.688-.727,3.206,3.206,0,0,1,.98-.441,4.349,4.349,0,0,1,1.137-.148,4.59,4.59,0,0,1,1.859.359v1.3a3.624,3.624,0,0,0-2.031-.578,2.374,2.374,0,0,0-.648.082,1.587,1.587,0,0,0-.5.23,1.065,1.065,0,0,0-.32.355.936.936,0,0,0-.113.457,1.1,1.1,0,0,0,.113.523,1.152,1.152,0,0,0,.332.375,2.538,2.538,0,0,0,.531.3q.312.133.711.289a9.894,9.894,0,0,1,.953.418,3.269,3.269,0,0,1,.719.484,1.893,1.893,0,0,1,.457.621,2,2,0,0,1,.16.836,1.971,1.971,0,0,1-.262,1.031,2.243,2.243,0,0,1-.7.727,3.2,3.2,0,0,1-1.008.43,4.976,4.976,0,0,1-1.2.141A4.539,4.539,0,0,1-52.715,20.711Zm10.984.211a2.47,2.47,0,0,1-1.2.25q-2.1,0-2.1-2.344V14.094H-46.4V13h1.375V11.047l1.281-.414V13h2.016v1.094h-2.016V18.6a1.869,1.869,0,0,0,.273,1.148,1.091,1.091,0,0,0,.906.344,1.347,1.347,0,0,0,.836-.266Zm5.883-6.625a1.567,1.567,0,0,0-.969-.258,1.635,1.635,0,0,0-1.371.773,3.576,3.576,0,0,0-.551,2.109V21H-40.02V13h1.281v1.648h.031a2.794,2.794,0,0,1,.836-1.316,1.906,1.906,0,0,1,1.258-.473,2.092,2.092,0,0,1,.766.109Zm4.734,6.891a3.711,3.711,0,0,1-2.832-1.121A4.153,4.153,0,0,1-35,17.094a4.326,4.326,0,0,1,1.1-3.148,3.96,3.96,0,0,1,2.977-1.133,3.588,3.588,0,0,1,2.793,1.1,4.368,4.368,0,0,1,1,3.055,4.3,4.3,0,0,1-1.082,3.066A3.791,3.791,0,0,1-31.113,21.188Zm.094-7.3a2.437,2.437,0,0,0-1.953.84,3.449,3.449,0,0,0-.719,2.316,3.262,3.262,0,0,0,.727,2.242,2.469,2.469,0,0,0,1.945.82,2.342,2.342,0,0,0,1.91-.8,3.492,3.492,0,0,0,.668-2.289,3.552,3.552,0,0,0-.668-2.312A2.332,2.332,0,0,0-31.02,13.891ZM-23.8,21h-1.281V9.156H-23.8Zm5.938.188A3.711,3.711,0,0,1-20.7,20.066a4.153,4.153,0,0,1-1.059-2.973,4.326,4.326,0,0,1,1.1-3.148,3.96,3.96,0,0,1,2.977-1.133,3.588,3.588,0,0,1,2.793,1.1,4.368,4.368,0,0,1,1,3.055,4.3,4.3,0,0,1-1.082,3.066A3.791,3.791,0,0,1-17.863,21.188Zm.094-7.3a2.437,2.437,0,0,0-1.953.84,3.449,3.449,0,0,0-.719,2.316,3.262,3.262,0,0,0,.727,2.242,2.469,2.469,0,0,0,1.945.82,2.342,2.342,0,0,0,1.91-.8,3.492,3.492,0,0,0,.668-2.289,3.552,3.552,0,0,0-.668-2.312A2.332,2.332,0,0,0-17.77,13.891ZM-5,20.359q0,4.406-4.219,4.406a5.664,5.664,0,0,1-2.594-.562V22.922a5.327,5.327,0,0,0,2.578.75q2.953,0,2.953-3.141v-.875h-.031a3,3,0,0,1-2.75,1.531,3,3,0,0,1-2.4-1.066,4.263,4.263,0,0,1-.91-2.863,4.981,4.981,0,0,1,.98-3.242,3.275,3.275,0,0,1,2.684-1.2,2.608,2.608,0,0,1,2.4,1.3h.031V13H-5Zm-1.281-2.977V16.2A2.289,2.289,0,0,0-6.93,14.57a2.122,2.122,0,0,0-1.605-.68,2.225,2.225,0,0,0-1.859.863,3.853,3.853,0,0,0-.672,2.418,3.308,3.308,0,0,0,.645,2.137,2.082,2.082,0,0,0,1.707.8,2.23,2.23,0,0,0,1.754-.766A2.854,2.854,0,0,0-6.285,17.383Zm10.3-.062H-1.629A2.992,2.992,0,0,0-.91,19.383a2.478,2.478,0,0,0,1.891.727,3.931,3.931,0,0,0,2.484-.891v1.2a4.643,4.643,0,0,1-2.789.766A3.381,3.381,0,0,1-1.988,20.1a4.461,4.461,0,0,1-.969-3.066A4.375,4.375,0,0,1-1.9,13.988,3.394,3.394,0,0,1,.73,12.813a3.008,3.008,0,0,1,2.43,1.016,4.234,4.234,0,0,1,.859,2.82ZM2.707,16.234a2.607,2.607,0,0,0-.535-1.727,1.823,1.823,0,0,0-1.465-.617,2.07,2.07,0,0,0-1.539.648,2.943,2.943,0,0,0-.781,1.7ZM10.129,14.3a1.567,1.567,0,0,0-.969-.258,1.635,1.635,0,0,0-1.371.773,3.576,3.576,0,0,0-.551,2.109V21H5.957V13H7.238v1.648H7.27a2.793,2.793,0,0,1,.836-1.316,1.906,1.906,0,0,1,1.258-.473,2.092,2.092,0,0,1,.766.109Zm.906,6.414V19.336a3.792,3.792,0,0,0,2.3.773q1.688,0,1.688-1.125a.976.976,0,0,0-.145-.543,1.44,1.44,0,0,0-.391-.395,3.007,3.007,0,0,0-.578-.309q-.332-.137-.715-.285a9.207,9.207,0,0,1-.934-.426,2.82,2.82,0,0,1-.672-.484,1.8,1.8,0,0,1-.406-.613,2.17,2.17,0,0,1-.137-.8,1.912,1.912,0,0,1,.258-1A2.286,2.286,0,0,1,12,13.4a3.206,3.206,0,0,1,.98-.441,4.349,4.349,0,0,1,1.137-.148,4.59,4.59,0,0,1,1.859.359v1.3a3.624,3.624,0,0,0-2.031-.578,2.374,2.374,0,0,0-.648.082,1.587,1.587,0,0,0-.5.23,1.065,1.065,0,0,0-.32.355.936.936,0,0,0-.113.457,1.1,1.1,0,0,0,.113.523,1.152,1.152,0,0,0,.332.375,2.538,2.538,0,0,0,.531.3q.312.133.711.289a9.894,9.894,0,0,1,.953.418,3.269,3.269,0,0,1,.719.484,1.893,1.893,0,0,1,.457.621,2,2,0,0,1,.16.836,1.971,1.971,0,0,1-.262,1.031,2.243,2.243,0,0,1-.7.727,3.2,3.2,0,0,1-1.008.43,4.976,4.976,0,0,1-1.2.141A4.539,4.539,0,0,1,11.035,20.711Zm19.453-2.992h-.039a2.249,2.249,0,0,1-2.242,1.859,2.125,2.125,0,0,1-1.723-.789,3.232,3.232,0,0,1-.652-2.125,4.656,4.656,0,0,1,.9-2.934,2.853,2.853,0,0,1,2.371-1.168,1.791,1.791,0,0,1,1,.289,1.286,1.286,0,0,1,.566.727h.031q.016-.219.078-.9h.977q-.367,4.3-.367,4.383,0,1.617.93,1.617a1.628,1.628,0,0,0,1.4-.914,4.487,4.487,0,0,0,.559-2.367,4.747,4.747,0,0,0-1.359-3.508,5.089,5.089,0,0,0-3.766-1.359,5.019,5.019,0,0,0-3.836,1.625,5.726,5.726,0,0,0-1.516,4.063A5.3,5.3,0,0,0,25.25,20.09a5.19,5.19,0,0,0,3.887,1.473,7.723,7.723,0,0,0,3.3-.641v.969a8.608,8.608,0,0,1-3.375.578,6.242,6.242,0,0,1-4.582-1.715,6.025,6.025,0,0,1-1.738-4.488,6.54,6.54,0,0,1,1.824-4.742,6.207,6.207,0,0,1,4.66-1.883,6.3,6.3,0,0,1,4.4,1.578,5.3,5.3,0,0,1,1.742,4.117,4.855,4.855,0,0,1-.918,3.051,2.742,2.742,0,0,1-2.238,1.191Q30.5,19.578,30.488,17.719Zm-1.4-4.25a1.8,1.8,0,0,0-1.566.922,4.124,4.124,0,0,0-.6,2.289,2.355,2.355,0,0,0,.4,1.453,1.28,1.28,0,0,0,1.074.531,1.72,1.72,0,0,0,1.535-.965,5.028,5.028,0,0,0,.566-2.559Q30.5,13.469,29.09,13.469Zm12.992-1.109h3.555a1.331,1.331,0,0,0-.207-.453,1.2,1.2,0,0,0-.406-.348,2.275,2.275,0,0,0-.648-.223,4.7,4.7,0,0,0-.918-.078H42.074L42.082,9.8h7.523v1.461H47.488a1.943,1.943,0,0,1,.371.492,1.836,1.836,0,0,1,.191.609h1.578V13.82H48a2.3,2.3,0,0,1-.32.734,2.686,2.686,0,0,1-.574.621,3.63,3.63,0,0,1-.8.477,4.474,4.474,0,0,1-.988.3v.031a2.934,2.934,0,0,1,.512.289,3.343,3.343,0,0,1,.445.383,4.957,4.957,0,0,1,.426.5q.211.281.461.633L49.4,21h-2.68l-1.781-2.789q-.258-.406-.488-.711a2.693,2.693,0,0,0-.492-.508,1.933,1.933,0,0,0-.578-.309,2.337,2.337,0,0,0-.738-.105h-.562V14.93h1.367a3.4,3.4,0,0,0,.758-.082,2.685,2.685,0,0,0,.645-.23,1.9,1.9,0,0,0,.484-.352,1.214,1.214,0,0,0,.285-.445H42.082Zm14.68-2.812V21H54.3V12.328a2.947,2.947,0,0,1-.48.34,4.96,4.96,0,0,1-.59.289,5.267,5.267,0,0,1-.648.219,4.736,4.736,0,0,1-.664.129V11.227a10.266,10.266,0,0,0,1.813-.719,10.315,10.315,0,0,0,1.539-.961Z" transform="translate(180 202)" fill="#130708"/><path d="M-16.359-17.281H-9.25a2.661,2.661,0,0,0-.414-.906,2.393,2.393,0,0,0-.812-.7,4.549,4.549,0,0,0-1.3-.445,9.391,9.391,0,0,0-1.836-.156h-2.766l.016-2.922H-1.312v2.922H-5.547A3.885,3.885,0,0,1-4.8-18.5a3.672,3.672,0,0,1,.383,1.219h3.156v2.922h-3.25a4.6,4.6,0,0,1-.641,1.469A5.371,5.371,0,0,1-6.3-11.648,7.259,7.259,0,0,1-7.9-10.7a8.947,8.947,0,0,1-1.977.6v.063a5.868,5.868,0,0,1,1.023.578,6.686,6.686,0,0,1,.891.766,9.915,9.915,0,0,1,.852,1q.422.563.922,1.266L-1.719,0H-7.078l-3.562-5.578q-.516-.812-.977-1.422A5.387,5.387,0,0,0-12.6-8.016a3.866,3.866,0,0,0-1.156-.617,4.674,4.674,0,0,0-1.477-.211h-1.125v-3.3h2.734a6.794,6.794,0,0,0,1.516-.164,5.369,5.369,0,0,0,1.289-.461,3.8,3.8,0,0,0,.969-.7,2.428,2.428,0,0,0,.57-.891h-7.078ZM13-22.906V0H8.078V-17.344a5.894,5.894,0,0,1-.961.68,9.92,9.92,0,0,1-1.18.578,10.534,10.534,0,0,1-1.3.438,9.472,9.472,0,0,1-1.328.258v-4.156a20.531,20.531,0,0,0,3.625-1.437,20.63,20.63,0,0,0,3.078-1.922Z" transform="translate(117 120)" fill="#ee4e5e"/><path d="M-149.18-17.281h7.109a2.661,2.661,0,0,0-.414-.906,2.393,2.393,0,0,0-.812-.7,4.549,4.549,0,0,0-1.3-.445,9.391,9.391,0,0,0-1.836-.156H-149.2l.016-2.922h15.047v2.922h-4.234a3.885,3.885,0,0,1,.742.984,3.672,3.672,0,0,1,.383,1.219h3.156v2.922h-3.25a4.6,4.6,0,0,1-.641,1.469,5.371,5.371,0,0,1-1.148,1.242,7.259,7.259,0,0,1-1.594.953,8.947,8.947,0,0,1-1.977.6v.063a5.868,5.868,0,0,1,1.023.578,6.685,6.685,0,0,1,.891.766,9.916,9.916,0,0,1,.852,1q.422.563.922,1.266L-134.539,0H-139.9l-3.562-5.578q-.516-.812-.977-1.422a5.387,5.387,0,0,0-.984-1.016,3.866,3.866,0,0,0-1.156-.617,4.674,4.674,0,0,0-1.477-.211h-1.125v-3.3h2.734a6.794,6.794,0,0,0,1.516-.164,5.369,5.369,0,0,0,1.289-.461,3.8,3.8,0,0,0,.969-.7,2.428,2.428,0,0,0,.57-.891h-7.078Zm29.359-5.625V0h-4.922V-17.344a5.894,5.894,0,0,1-.961.68,9.92,9.92,0,0,1-1.18.578,10.534,10.534,0,0,1-1.3.438,9.472,9.472,0,0,1-1.328.258v-4.156a20.531,20.531,0,0,0,3.625-1.437,20.629,20.629,0,0,0,3.078-1.922Zm14.484,23.3q-8,0-8-11.234,0-5.828,2.164-8.883a7.21,7.21,0,0,1,6.273-3.055q7.813,0,7.813,11.422,0,5.688-2.133,8.719A7.026,7.026,0,0,1-105.336.391Zm.219-19.406q-3.2,0-3.2,8.047,0,7.578,3.141,7.578,3.062,0,3.063-7.812T-105.117-19.016ZM-86.93.391q-8,0-8-11.234,0-5.828,2.164-8.883a7.21,7.21,0,0,1,6.273-3.055q7.813,0,7.813,11.422,0,5.688-2.133,8.719A7.026,7.026,0,0,1-86.93.391Zm.219-19.406q-3.2,0-3.2,8.047,0,7.578,3.141,7.578,3.062,0,3.063-7.812T-86.711-19.016Zm36.234.719h-6.391V0H-61.93V-18.3h-6.359v-4.109h17.813ZM-37.352,0h-4.672V-2.3h-.062A5.214,5.214,0,0,1-46.852.391,4.985,4.985,0,0,1-50.516-.93a4.731,4.731,0,0,1-1.336-3.523q0-4.656,5.516-5.375l4.344-.578q0-2.625-2.844-2.625a9.707,9.707,0,0,0-5.437,1.7v-3.719a12.233,12.233,0,0,1,2.82-.937,14.825,14.825,0,0,1,3.258-.406q6.844,0,6.844,6.828Zm-4.641-6.5V-7.578L-44.9-7.2Q-47.3-6.891-47.3-5.031a1.8,1.8,0,0,0,.586,1.383,2.251,2.251,0,0,0,1.586.539,2.923,2.923,0,0,0,2.266-.961A3.471,3.471,0,0,0-41.992-6.5ZM-28.508,0h-4.937V-23.687h4.938ZM-8.32,0h-5.922l-5.109-7.937h-.062V0h-4.937V-23.687h4.938V-8.609h.063L-14.586-16h5.859l-5.734,7.516Zm8.8-6.812H-8.07v-3.453H.477ZM14.383-.187a7.3,7.3,0,0,1-3.3.578q-5.219,0-5.219-5.422v-7.328H3.273V-16H5.867v-3.453l4.922-1.406V-16h3.594v3.641H10.789v6.469q0,2.5,1.984,2.5a3.346,3.346,0,0,0,1.609-.453Zm5.281-18.344a2.884,2.884,0,0,1-2.047-.742,2.391,2.391,0,0,1-.8-1.82,2.306,2.306,0,0,1,.8-1.812,2.979,2.979,0,0,1,2.047-.7,2.973,2.973,0,0,1,2.055.7,2.316,2.316,0,0,1,.789,1.813,2.382,2.382,0,0,1-.789,1.844A2.933,2.933,0,0,1,19.664-18.531ZM22.1,0H17.164V-16H22.1ZM51.664,0H46.742V-9.125q0-3.484-2.562-3.484A2.354,2.354,0,0,0,42.2-11.562a4.3,4.3,0,0,0-.766,2.609V0H36.492V-9.219q0-3.391-2.516-3.391a2.411,2.411,0,0,0-2.023,1A4.4,4.4,0,0,0,31.2-8.891V0H26.258V-16H31.2v2.5h.063a5.9,5.9,0,0,1,2.148-2.086,5.9,5.9,0,0,1,3.023-.8,4.607,4.607,0,0,1,4.641,2.984,5.919,5.919,0,0,1,5.375-2.984q5.219,0,5.219,6.438ZM69.945-6.594H59.508q.25,3.484,4.391,3.484a8.572,8.572,0,0,0,4.641-1.25V-.8A12.191,12.191,0,0,1,62.773.391a8.116,8.116,0,0,1-6.016-2.148A8.117,8.117,0,0,1,54.617-7.75a8.562,8.562,0,0,1,2.313-6.312,7.7,7.7,0,0,1,5.688-2.328,6.993,6.993,0,0,1,5.414,2.078,8,8,0,0,1,1.914,5.641ZM65.367-9.625q0-3.437-2.781-3.437a2.655,2.655,0,0,0-2.055.984,4.468,4.468,0,0,0-1.055,2.453ZM95.148-18.3H87.242v5.5h7.266V-8.7H87.242V0H82.2V-22.406H95.148ZM117.633,0h-5.8l-3.484-5.766q-.391-.656-.75-1.172a6.511,6.511,0,0,0-.727-.883,2.889,2.889,0,0,0-.766-.562,1.943,1.943,0,0,0-.867-.2h-1.359V0H98.836V-22.406h8q8.156,0,8.156,6.094a6.31,6.31,0,0,1-.359,2.164,6.012,6.012,0,0,1-1.016,1.789,6.438,6.438,0,0,1-1.586,1.375,8.179,8.179,0,0,1-2.07.906v.063a3.211,3.211,0,0,1,.969.508,6.937,6.937,0,0,1,.906.82,11.445,11.445,0,0,1,.836,1.008q.4.539.727,1.055Zm-13.75-18.625v6.234h2.188a3.627,3.627,0,0,0,2.609-.937,3.129,3.129,0,0,0,1-2.359q0-2.937-3.516-2.937ZM133.164,0H119.727V-22.406h12.922V-18.3h-7.875v4.984H132.1v4.094h-7.328v5.125h8.391ZM150.2,0H136.758V-22.406H149.68V-18.3H141.8v4.984h7.328v4.094H141.8v5.125H150.2Z" transform="translate(180 163)" fill="#ee4e5e"/><path d="M-85.711,0h-5.8l-3.484-5.766q-.391-.656-.75-1.172a6.511,6.511,0,0,0-.727-.883,2.889,2.889,0,0,0-.766-.562,1.943,1.943,0,0,0-.867-.2h-1.359V0h-5.047V-22.406h8q8.156,0,8.156,6.094a6.31,6.31,0,0,1-.359,2.164,6.012,6.012,0,0,1-1.016,1.789,6.438,6.438,0,0,1-1.586,1.375,8.179,8.179,0,0,1-2.07.906v.063a3.211,3.211,0,0,1,.969.508,6.937,6.937,0,0,1,.906.82,11.445,11.445,0,0,1,.836,1.008q.4.539.727,1.055Zm-13.75-18.625v6.234h2.188a3.627,3.627,0,0,0,2.609-.937,3.129,3.129,0,0,0,1-2.359q0-2.937-3.516-2.937ZM-70.523-6.594H-80.961q.25,3.484,4.391,3.484a8.572,8.572,0,0,0,4.641-1.25V-.8A12.191,12.191,0,0,1-77.7.391a8.116,8.116,0,0,1-6.016-2.148A8.117,8.117,0,0,1-85.852-7.75a8.562,8.562,0,0,1,2.313-6.312,7.7,7.7,0,0,1,5.688-2.328,6.993,6.993,0,0,1,5.414,2.078,8,8,0,0,1,1.914,5.641ZM-75.1-9.625q0-3.437-2.781-3.437a2.655,2.655,0,0,0-2.055.984,4.468,4.468,0,0,0-1.055,2.453ZM-55.461-.578a9.763,9.763,0,0,1-4.828.969,8.165,8.165,0,0,1-5.969-2.234,7.717,7.717,0,0,1-2.281-5.766,8.5,8.5,0,0,1,2.445-6.43,9.037,9.037,0,0,1,6.539-2.352,8.39,8.39,0,0,1,4.094.75v4.188a5.629,5.629,0,0,0-3.453-1.156,4.55,4.55,0,0,0-3.367,1.242,4.635,4.635,0,0,0-1.242,3.43A4.56,4.56,0,0,0-62.336-4.6,4.364,4.364,0,0,0-59.07-3.391a6.517,6.517,0,0,0,3.609-1.156ZM-36.867,0h-4.922V-9.094q0-3.516-2.562-3.516a2.623,2.623,0,0,0-2.125.984,3.8,3.8,0,0,0-.812,2.5V0h-4.937V-23.687h4.938v10.063h.063A5.61,5.61,0,0,1-42.3-16.391q5.438,0,5.438,6.563Zm17.219,0H-24.32V-2.3h-.062A5.214,5.214,0,0,1-29.148.391,4.985,4.985,0,0,1-32.812-.93a4.731,4.731,0,0,1-1.336-3.523q0-4.656,5.516-5.375l4.344-.578q0-2.625-2.844-2.625a9.707,9.707,0,0,0-5.437,1.7v-3.719a12.233,12.233,0,0,1,2.82-.937,14.825,14.825,0,0,1,3.258-.406q6.844,0,6.844,6.828Zm-4.641-6.5V-7.578L-27.2-7.2Q-29.6-6.891-29.6-5.031a1.8,1.8,0,0,0,.586,1.383,2.251,2.251,0,0,0,1.586.539,2.923,2.923,0,0,0,2.266-.961A3.471,3.471,0,0,0-24.289-6.5ZM-5.3-11.547a4.283,4.283,0,0,0-2.078-.484A2.994,2.994,0,0,0-9.9-10.852,5.146,5.146,0,0,0-10.8-7.641V0h-4.937V-16H-10.8v2.969h.063q1.172-3.25,4.219-3.25a3.18,3.18,0,0,1,1.219.188ZM12.555-1.828a9.052,9.052,0,0,1-2.578,6.9Q7.4,7.516,2.508,7.516a11.839,11.839,0,0,1-5.125-.922V2.438A9.814,9.814,0,0,0,2.367,3.875a5.369,5.369,0,0,0,3.875-1.32A4.738,4.738,0,0,0,7.617-1.031V-2.3H7.555A5.514,5.514,0,0,1,2.57.391,6,6,0,0,1-2.289-1.766a8.744,8.744,0,0,1-1.8-5.781,9.739,9.739,0,0,1,2-6.453A6.529,6.529,0,0,1,3.18-16.391a4.859,4.859,0,0,1,4.375,2.25h.063V-16h4.938ZM7.68-7.687V-8.953a3.889,3.889,0,0,0-.9-2.586,2.906,2.906,0,0,0-2.336-1.07,3.02,3.02,0,0,0-2.578,1.281A6.025,6.025,0,0,0,.93-7.719,5.085,5.085,0,0,0,1.82-4.555,2.9,2.9,0,0,0,4.258-3.391,3.021,3.021,0,0,0,6.734-4.57,4.837,4.837,0,0,0,7.68-7.687ZM31.055-6.594H20.617q.25,3.484,4.391,3.484a8.572,8.572,0,0,0,4.641-1.25V-.8A12.191,12.191,0,0,1,23.883.391a8.116,8.116,0,0,1-6.016-2.148A8.117,8.117,0,0,1,15.727-7.75a8.562,8.562,0,0,1,2.313-6.312,7.7,7.7,0,0,1,5.688-2.328,6.993,6.993,0,0,1,5.414,2.078,8,8,0,0,1,1.914,5.641ZM26.477-9.625q0-3.437-2.781-3.437a2.655,2.655,0,0,0-2.055.984,4.468,4.468,0,0,0-1.055,2.453ZM65.992-16,61.383,0H56.2L53.836-9.375a9.545,9.545,0,0,1-.266-2.047h-.094a12.248,12.248,0,0,1-.312,1.984L50.633,0H45.508L40.992-16h5.031l2.2,10.438a13.571,13.571,0,0,1,.234,1.781h.094a9.864,9.864,0,0,1,.281-1.844L51.586-16h4.7L58.758-5.562a16.6,16.6,0,0,1,.219,1.813h.109a18.035,18.035,0,0,1,.25-1.812L61.414-16Zm4.844-2.531a2.884,2.884,0,0,1-2.047-.742,2.391,2.391,0,0,1-.8-1.82,2.306,2.306,0,0,1,.8-1.812,2.979,2.979,0,0,1,2.047-.7,2.973,2.973,0,0,1,2.055.7,2.316,2.316,0,0,1,.789,1.813,2.382,2.382,0,0,1-.789,1.844A2.933,2.933,0,0,1,70.836-18.531ZM73.273,0H68.336V-16h4.938ZM87.1-.187a7.3,7.3,0,0,1-3.3.578q-5.219,0-5.219-5.422v-7.328H75.992V-16h2.594v-3.453l4.922-1.406V-16H87.1v3.641H83.508v6.469q0,2.5,1.984,2.5A3.346,3.346,0,0,0,87.1-3.844ZM105.242,0H100.32V-9.094q0-3.516-2.562-3.516a2.623,2.623,0,0,0-2.125.984,3.8,3.8,0,0,0-.812,2.5V0H89.883V-23.687H94.82v10.063h.063A5.61,5.61,0,0,1,99.8-16.391q5.438,0,5.438,6.563Z" transform="translate(180 77)" fill="#212121"/><path d="M-43.477,0h-4.672V-2.3h-.062A5.214,5.214,0,0,1-52.977.391,4.985,4.985,0,0,1-56.641-.93a4.731,4.731,0,0,1-1.336-3.523q0-4.656,5.516-5.375l4.344-.578q0-2.625-2.844-2.625a9.707,9.707,0,0,0-5.437,1.7v-3.719a12.233,12.233,0,0,1,2.82-.937,14.825,14.825,0,0,1,3.258-.406q6.844,0,6.844,6.828Zm-4.641-6.5V-7.578l-2.906.375q-2.406.313-2.406,2.172a1.8,1.8,0,0,0,.586,1.383,2.251,2.251,0,0,0,1.586.539,2.923,2.923,0,0,0,2.266-.961A3.471,3.471,0,0,0-48.117-6.5Zm24,6.5h-4.922V-8.891q0-3.719-2.656-3.719a2.636,2.636,0,0,0-2.109.984,3.75,3.75,0,0,0-.828,2.5V0H-39.57V-16h4.938v2.531h.063a5.658,5.658,0,0,1,5.141-2.922q5.312,0,5.313,6.594ZM-4.555,0H-9.492V-2.2h-.062A5.536,5.536,0,0,1-14.508.391a6.066,6.066,0,0,1-4.828-2.117,8.764,8.764,0,0,1-1.828-5.914A9.539,9.539,0,0,1-19.148-14a6.574,6.574,0,0,1,5.281-2.391,4.492,4.492,0,0,1,4.313,2.219h.063v-9.516h4.938ZM-9.4-7.781v-1.2a3.786,3.786,0,0,0-.906-2.594,2.993,2.993,0,0,0-2.359-1.031,2.974,2.974,0,0,0-2.562,1.289,5.986,5.986,0,0,0-.922,3.539,5.18,5.18,0,0,0,.891,3.25,2.957,2.957,0,0,0,2.469,1.141,2.969,2.969,0,0,0,2.445-1.2A5.015,5.015,0,0,0-9.4-7.781ZM27.3-1.5A16.125,16.125,0,0,1,19.148.391q-5.406,0-8.523-2.992a10.886,10.886,0,0,1-3.117-8.242,11.507,11.507,0,0,1,3.406-8.609,12.41,12.41,0,0,1,9.063-3.328,18.408,18.408,0,0,1,6.281.984v4.734a12.484,12.484,0,0,0-6.344-1.5A6.811,6.811,0,0,0,14.8-16.523a7.491,7.491,0,0,0-1.977,5.445,7.513,7.513,0,0,0,1.773,5.344,6.251,6.251,0,0,0,4.789,1.891,6.666,6.666,0,0,0,2.875-.516V-8.734H17.773v-4.031H27.3Zm18.25-5.094H35.117q.25,3.484,4.391,3.484a8.572,8.572,0,0,0,4.641-1.25V-.8A12.191,12.191,0,0,1,38.383.391a8.116,8.116,0,0,1-6.016-2.148A8.117,8.117,0,0,1,30.227-7.75a8.562,8.562,0,0,1,2.313-6.312,7.7,7.7,0,0,1,5.688-2.328,6.993,6.993,0,0,1,5.414,2.078,8,8,0,0,1,1.914,5.641ZM40.977-9.625q0-3.437-2.781-3.437a2.655,2.655,0,0,0-2.055.984,4.468,4.468,0,0,0-1.055,2.453ZM58.164-.187a7.3,7.3,0,0,1-3.3.578q-5.219,0-5.219-5.422v-7.328H47.055V-16h2.594v-3.453l4.922-1.406V-16h3.594v3.641H54.57v6.469q0,2.5,1.984,2.5a3.346,3.346,0,0,0,1.609-.453Z" transform="translate(203 120)" fill="#212121"/><g transform="translate(325 10)"><path d="M9.8,0a9.8,9.8,0,1,0,9.8,9.8A9.81,9.81,0,0,0,9.8,0Zm0,18.615A8.813,8.813,0,1,1,18.615,9.8,8.829,8.829,0,0,1,9.8,18.615Z"/><g transform="translate(5.893 5.861)"><path d="M110.637,109.109l3.035-3.035a.515.515,0,1,0-.728-.728l-3.035,3.035-3.035-3.035a.515.515,0,0,0-.728.728l3.035,3.035-3.035,3.011a.528.528,0,0,0,0,.728.528.528,0,0,0,.728,0l3.035-3.035,3.035,3.035a.528.528,0,0,0,.728,0,.528.528,0,0,0,0-.728Z" transform="translate(-106 -105.2)"/></g></g></g></svg>