<svg id="add_attacment" xmlns="http://www.w3.org/2000/svg" width="16" height="16" viewBox="0 0 16 16">
  <path id="Path_8" data-name="Path 8" d="M9.5,0H1.833A1.832,1.832,0,0,0,0,1.833V12.167A1.832,1.832,0,0,0,1.833,14H6.227a5.821,5.821,0,0,1-.56-2.5,5.762,5.762,0,0,1,.42-2.173A.352.352,0,0,1,6,9.333H2.667A.667.667,0,0,1,2.667,8H6a.659.659,0,0,1,.587.36A5.885,5.885,0,0,1,8.24,6.667H2.667a.667.667,0,1,1,0-1.333h6A.669.669,0,0,1,9.333,6a.352.352,0,0,1-.007.087,5.587,5.587,0,0,1,2.007-.413V1.833A1.832,1.832,0,0,0,9.5,0ZM5.333,4H2.667a.667.667,0,1,1,0-1.333H5.333A.667.667,0,0,1,5.333,4Z" fill="#000"/>
  <path id="Path_9" data-name="Path 9" d="M15,10.5A4.5,4.5,0,1,0,19.5,15,4.505,4.505,0,0,0,15,10.5Zm1.833,5.167H15.667v1.167a.667.667,0,0,1-1.333,0V15.667H13.167a.667.667,0,1,1,0-1.333h1.167V13.167a.667.667,0,1,1,1.333,0v1.167h1.167a.667.667,0,0,1,0,1.333Z" transform="translate(-3.5 -3.5)" fill="#000"/>
</svg>
