<svg xmlns="http://www.w3.org/2000/svg" width="19.832" height="22" viewBox="0 0 19.832 22">
  <path id="attachment" d="M18.568,13.558l-1.627-1.627L9.619,4.61A3.451,3.451,0,0,0,4.738,9.491l7.321,7.324a.767.767,0,1,0,1.085-1.085L5.823,8.406A1.917,1.917,0,0,1,8.534,5.694l7.324,7.321,1.627,1.627A3.452,3.452,0,1,1,12.6,19.524l-1.356-1.356L3.654,10.575l-.542-.542a4.986,4.986,0,0,1,7.05-7.05L18.3,11.118a.767.767,0,1,0,1.085-1.085L11.246,1.9a6.519,6.519,0,0,0-9.22,9.22l8.135,8.135,1.358,1.356a4.986,4.986,0,0,0,7.049-7.051Zm0,0" transform="translate(-0.128 0.001)" opacity="0.55"/>
</svg>
