<svg xmlns="http://www.w3.org/2000/svg" width="43" height="37.793" viewBox="0 0 43 37.793">
  <path id="chatloading" d="M5.123,36.534V30.108A6.384,6.384,0,0,1,0,23.936V13.857a6.379,6.379,0,0,1,6.383-6.3h1.26v8.819A8.829,8.829,0,0,0,16.461,25.2H27.494l3.33,3.33a6.259,6.259,0,0,1-4.285,1.709H14.463L7.274,37.424a1.231,1.231,0,0,1-.88.37A1.258,1.258,0,0,1,5.123,36.534Zm30.6-6.668-7.189-7.19H16.461a6.306,6.306,0,0,1-6.3-6.3V6.3a6.307,6.307,0,0,1,6.3-6.3H36.617A6.379,6.379,0,0,1,43,6.3V16.377a6.385,6.385,0,0,1-5.123,6.172v6.425a1.257,1.257,0,0,1-1.269,1.261A1.235,1.235,0,0,1,35.726,29.866Z" fill="#fff"/>
</svg>
