<svg xmlns="http://www.w3.org/2000/svg" width="13" height="16.5" viewBox="0 0 13 16.5">
  <g id="trash" transform="translate(0 0.5)">
    <path id="Path_2861" data-name="Path 2861" d="M73.8,1.673a.87.87,0,0,1,.814-.949h3.347a.87.87,0,0,1,.814.949v1.04h.6V1.673A1.542,1.542,0,0,0,77.964,0H74.616A1.542,1.542,0,0,0,73.2,1.673v1.04h.6Zm0,0" transform="translate(-69.79)" fill="#fff" stroke="#fff" stroke-width="1"/>
    <path id="Path_2862" data-name="Path 2862" d="M29.532,136.794h7.784a1.491,1.491,0,0,0,1.333-1.628V124H28.2v11.167a1.491,1.491,0,0,0,1.333,1.628Zm5.99-11.067a.331.331,0,1,1,.658,0v8.544a.331.331,0,1,1-.658,0Zm-2.427,0a.331.331,0,1,1,.658,0v8.544a.331.331,0,1,1-.658,0Zm-2.427,0a.331.331,0,1,1,.658,0v8.544a.331.331,0,1,1-.658,0Zm0,0" transform="translate(-26.924 -120.794)" fill="#fff"/>
    <path id="Path_2863" data-name="Path 2863" d="M.838,69.808H12.162a.907.907,0,0,0,0-1.808H.838a.907.907,0,0,0,0,1.808Zm0,0" transform="translate(0 -65.37)" fill="#fff"/>
  </g>
</svg>
